<svg xmlns="http://www.w3.org/2000/svg" width="117" height="119" viewBox="0 0 117 119">
  <g id="Group_1405" data-name="Group 1405" transform="translate(-0.377 -0.082)">
    <ellipse id="Ellipse_2" data-name="Ellipse 2" cx="58.5" cy="59.5" rx="58.5" ry="59.5" transform="translate(0.377 0.082)" fill="#f0f0f0"/>
    <path id="Icon_awesome-user-alt" data-name="Icon awesome-user-alt" d="M28.411,31.963A15.981,15.981,0,1,0,12.43,15.981,15.986,15.986,0,0,0,28.411,31.963Zm14.206,3.551H36.5a19.319,19.319,0,0,1-16.181,0H14.206A14.2,14.2,0,0,0,0,49.72V51.5a5.329,5.329,0,0,0,5.327,5.327H51.5A5.329,5.329,0,0,0,56.823,51.5V49.72A14.2,14.2,0,0,0,42.617,35.514Z" transform="translate(30.952 24.731)" fill="#d0d0d0"/>
  </g>
</svg>
