<svg xmlns="http://www.w3.org/2000/svg" xmlns:xlink="http://www.w3.org/1999/xlink" width="62.811" height="84.892" viewBox="0 0 62.811 84.892">
  <defs>
    <clipPath id="clip-path">
      <rect id="Rectangle_473" data-name="Rectangle 473" width="62.811" height="84.892" transform="translate(0 0)" fill="none"/>
    </clipPath>
  </defs>
  <g id="Group_1406" data-name="Group 1406" transform="translate(0 0)">
    <g id="Group_1405" data-name="Group 1405" clip-path="url(#clip-path)">
      <path id="Path_2096" data-name="Path 2096" d="M37.309,50V46.777c0-.638-1.133-2.764-2.9-2.764L32.986,43.8s-.071-5.173-.071-5.74.354-.567.567-.567c1.087,0,.993.035,1.028-1.028.052-1.559.035-3.154.461-3.863a1.834,1.834,0,0,0,.283-1.843c-.283-.5-.638-.567-.709-1.133a1.141,1.141,0,0,0-1.276-.922c-.708,0-1.346-.141-1.346-.425s.213-.851.213-1.347S31.852,25.373,31,25.373s-1.134.638-1.134,1.63.638,1.134.638,1.489-.567.708-.922.85a1.993,1.993,0,0,0-.779,1.772,14.873,14.873,0,0,1-.142,3.189,7.87,7.87,0,0,0-.709,2.481c0,.85.213,2.055.142,2.622s-.354,4.607-.354,4.607c-1.772,0-2.906,2.126-2.906,2.764V50" fill="#1a1818"/>
      <path id="Path_2097" data-name="Path 2097" d="M24.836,49.187H19.1c-.78,0-.851.212-.851.708V51.88h-2.2s-.141-1.063-.141,4.04,6.378,7.371,7.654,7.371h6.946V62.086H23.56c-1.063,0-6.343-2.445-6.343-6.343V53.227h1.028v2.2c0,1.134,1.984,5.528,6.166,5.528h6.166a1.965,1.965,0,0,0-.355-1.418c-.036-.038.04-1.914,0-3.047a9.013,9.013,0,0,0-3.544-6.45" fill="#995f26"/>
      <path id="Path_2098" data-name="Path 2098" d="M26.678,50.037V46.564h8.789v3.473" fill="#fff"/>
      <path id="Path_2099" data-name="Path 2099" d="M35.467,50.037a9.017,9.017,0,0,0-3.544,6.45c-.04,1.133.036,3.009,0,3.047a1.962,1.962,0,0,0-.354,1.418h6.166c4.181,0,6.166-4.394,6.166-5.528v-2.2h1.028v2.517c0,3.9-5.281,6.343-6.344,6.343H31.639v1.2h6.946c1.276,0,7.654-2.267,7.654-7.37s-.141-4.04-.141-4.04H43.9V49.9c0-.5-.071-.708-.85-.708h-5.74" fill="#995f26"/>
      <path id="Path_2100" data-name="Path 2100" d="M31.622,6.095s-.044,4.632-.709,10.241c0,.031-1.482.018-1.479,0,.221-1.665.363-3.437.363-3.437s-.885,0-.86-.009a122.679,122.679,0,0,1-3.871,21.625c0,.012-1.43-.027-1.426-.035a21.028,21.028,0,0,0,.771-2.87H23.135s-1.8,6.565-3.969,12.474a10.421,10.421,0,0,1-1.489-.071l1.2-3.26H17.394l-3.615,8.185s-1.57-.012-1.559-.035A85.659,85.659,0,0,0,18.1,34.374H19.52L18.6,37.138a8.493,8.493,0,0,0,1.394-.071c1.848-5.392,3.318-12.19,3.318-12.19h1.365l-.709,3.012s1.22.049,1.223.035a119.687,119.687,0,0,0,2.569-18l1.373-.009L29,11.774s.937.01.94-.009C30.258,8.8,30.222,0,30.222,0h1.411l.007,3.278" fill="#995f26"/>
      <path id="Path_2101" data-name="Path 2101" d="M18.209,38.414h1.329l-.319,1.01-1.341.053Z" fill="#fff"/>
      <path id="Path_2102" data-name="Path 2102" d="M23.737,29.218h1.3l-.3,1.01-1.329.053Z" fill="#fff"/>
      <path id="Path_2103" data-name="Path 2103" d="M31.64,3.278h.366L32.013,0h1.411s-.036,8.8.283,11.765c0,.019.939.009.939.009l-.132-1.86,1.373.009a119.681,119.681,0,0,0,2.569,18c0,.014,1.223-.035,1.223-.035l-.708-3.012h1.364s1.47,6.8,3.317,12.191a8.625,8.625,0,0,0,1.4.07l-.921-2.764h1.417A85.691,85.691,0,0,0,51.426,48.9c.011.023-1.559.036-1.559.036l-3.615-8.186H44.764l1.205,3.26a10.421,10.421,0,0,1-1.489.071c-2.171-5.909-3.969-12.474-3.969-12.474H39.235a21.07,21.07,0,0,0,.771,2.871c0,.007-1.423.046-1.426.035A122.955,122.955,0,0,1,34.708,12.89c.026.013-.859.01-.859.01s.142,1.771.363,3.437c0,.018-1.476.03-1.479,0-.664-5.609-.709-10.242-.709-10.242h-.4" fill="#995f26"/>
      <path id="Path_2104" data-name="Path 2104" d="M45.437,38.414H44.108l.318,1.01,1.341.053Z" fill="#fff"/>
      <path id="Path_2105" data-name="Path 2105" d="M39.909,29.218H38.6l.294,1.01,1.329.053Z" fill="#fff"/>
      <path id="Path_2106" data-name="Path 2106" d="M28.45,43.942c.071-.708,0-2.48.071-2.764s.071-1.276.425-1.346,0,1.346.213,2.2a6.876,6.876,0,0,1,.142,1.843Z" fill="#fff"/>
      <path id="Path_2107" data-name="Path 2107" d="M29.088,51.809V47.557l1.771,3.968-.07,4.679c-.426-3.4-1.7-4.4-1.7-4.4" fill="#995f26"/>
      <path id="Path_2108" data-name="Path 2108" d="M28.521,59.818s-2.977.018-3.827,0c-3.473-.071-4.04-1.984-4.04-1.984l5.883-.071Z" fill="#fff"/>
      <path id="Path_2109" data-name="Path 2109" d="M25.261,56.628H20.3a1.022,1.022,0,0,1-.921-1.063v-.992h3.827Z" fill="#fff"/>
      <path id="Path_2110" data-name="Path 2110" d="M19.378,50.746l2.906,2.977h-2.2a.779.779,0,0,1-.85-.851c0-.425.142-2.126.142-2.126" fill="#fff"/>
      <path id="Path_2111" data-name="Path 2111" d="M29.088,58.826s.01-2.921,0-2.977c-.866-4.952-4.182-5.315-4.182-5.315v4.11Z" fill="#fff"/>
      <path id="Path_2112" data-name="Path 2112" d="M23.772,53.51V50.321l-3.543-.071Z" fill="#fff"/>
      <path id="Path_2113" data-name="Path 2113" d="M33.057,51.809V47.557l-1.772,3.968.071,4.679c.425-3.4,1.7-4.4,1.7-4.4" fill="#995f26"/>
      <path id="Path_2114" data-name="Path 2114" d="M33.624,59.818s2.977.018,3.827,0c3.473-.071,4.041-1.984,4.041-1.984l-5.883-.071Z" fill="#fff"/>
      <path id="Path_2115" data-name="Path 2115" d="M36.884,56.628h4.962a1.022,1.022,0,0,0,.921-1.063v-.992H38.94Z" fill="#fff"/>
      <path id="Path_2116" data-name="Path 2116" d="M42.767,50.746l-2.906,2.977h2.2a.78.78,0,0,0,.851-.851c0-.425-.142-2.126-.142-2.126" fill="#fff"/>
      <path id="Path_2117" data-name="Path 2117" d="M33.057,58.826s-.01-2.921,0-2.977c.866-4.952,4.182-5.315,4.182-5.315v4.11Z" fill="#fff"/>
      <path id="Path_2118" data-name="Path 2118" d="M38.373,53.51V50.321l3.544-.071Z" fill="#fff"/>
      <path id="Path_2119" data-name="Path 2119" d="M34.191,45.218a.213.213,0,1,0,0-.425H28.45a.213.213,0,0,0,0,.425Z" fill="#fff"/>
      <path id="Path_2120" data-name="Path 2120" d="M31.132,75.729V67.012l-1.7-1.914-2.551,2.02-.213,8.292,2.126-1.488Z" fill="#ec4115"/>
      <path id="Path_2121" data-name="Path 2121" d="M26.029,75.2l.213-8.08-1.276-2.126L22.627,66.8l-.638,8.079,2.02-1.276Z" fill="#ec4115"/>
      <path id="Path_2122" data-name="Path 2122" d="M21.458,74.56l.638-7.867-.744-2.02-2.339,1.382-1.489,7.017,2.127-.319Z" fill="#ec4115"/>
      <path id="Path_2123" data-name="Path 2123" d="M16.993,72.753l1.488-6.8v-2.02L15.93,65.2,13.7,71.477H15.5Z" fill="#ec4115"/>
      <path id="Path_2124" data-name="Path 2124" d="M13.378,70.732l2.232-5.847.851-1.17-.212-.956-2.02.531-3.4,6.06,1.594.213Z" fill="#ec4115"/>
      <path id="Path_2125" data-name="Path 2125" d="M11.04,67.756l3.721-6.591H12.634l-4.466,5,1.914.744Z" fill="#ec4115"/>
      <path id="Path_2126" data-name="Path 2126" d="M8.7,64.673l4.784-5.209-1.807-.426-5,4.253,1.382.531Z" fill="#ec4115"/>
      <path id="Path_2127" data-name="Path 2127" d="M7.319,61.8l4.146-3.4,1.169-.532-1.275-.744L6.043,60Z" fill="#ec4115"/>
      <path id="Path_2128" data-name="Path 2128" d="M7.106,58.294l4.146-2.02,1.169-.319L11.146,55,6.362,56.487l.744,1.488" fill="#ec4115"/>
      <path id="Path_2129" data-name="Path 2129" d="M12.421,54.148l-1.382-.212L7.85,55.105l-.532-1.6,4.146-.744Z" fill="#ec4115"/>
      <path id="Path_2130" data-name="Path 2130" d="M13.166,52.766,12.1,52.128l-2.552.106.213-1.488,2.339-.213Z" fill="#ec4115"/>
      <path id="Path_2131" data-name="Path 2131" d="M31.848,75.729V67.012l1.7-1.914,2.552,2.02.212,8.292-2.126-1.488Z" fill="#ec4115"/>
      <path id="Path_2132" data-name="Path 2132" d="M36.951,75.2l-.212-8.08,1.275-2.126L40.353,66.8l.638,8.079L38.972,73.6Z" fill="#ec4115"/>
      <path id="Path_2133" data-name="Path 2133" d="M41.522,74.56l-.638-7.867.745-2.02,2.338,1.382,1.489,7.017-2.126-.319Z" fill="#ec4115"/>
      <path id="Path_2134" data-name="Path 2134" d="M45.988,72.753l-1.488-6.8v-2.02L47.05,65.2l2.234,6.272H47.476Z" fill="#ec4115"/>
      <path id="Path_2135" data-name="Path 2135" d="M49.6,70.732,47.37,64.885l-.851-1.17.212-.956,2.02.531,3.4,6.06-1.6.213Z" fill="#ec4115"/>
      <path id="Path_2136" data-name="Path 2136" d="M51.941,67.756,48.22,61.165h2.126l4.466,5L52.9,66.9Z" fill="#ec4115"/>
      <path id="Path_2137" data-name="Path 2137" d="M54.28,64.673,49.5,59.464l1.807-.426,5,4.253-1.383.531Z" fill="#ec4115"/>
      <path id="Path_2138" data-name="Path 2138" d="M55.662,61.8l-4.146-3.4-1.169-.532,1.275-.744L56.938,60Z" fill="#ec4115"/>
      <path id="Path_2139" data-name="Path 2139" d="M55.875,58.294l-4.146-2.02-1.169-.319L51.834,55l4.784,1.488-.744,1.488" fill="#ec4115"/>
      <path id="Path_2140" data-name="Path 2140" d="M50.559,54.148l1.382-.212,3.189,1.169.532-1.6-4.146-.744Z" fill="#ec4115"/>
      <path id="Path_2141" data-name="Path 2141" d="M49.814,52.766l1.063-.638,2.552.106-.212-1.488-2.34-.213Z" fill="#ec4115"/>
      <path id="Path_2142" data-name="Path 2142" d="M1.736,66.9a1.021,1.021,0,0,0-.5.416.663.663,0,0,0-.093.619q.182.465.837.211l1.98-.77.312.8-2.227.867A1.008,1.008,0,0,1,.579,68.38a1.16,1.16,0,0,1,.322-1.2l-.613.238L0,66.674l3.2-1.246.305.787Z" fill="#1a1818"/>
      <path id="Path_2143" data-name="Path 2143" d="M2.13,71.35l-.449-.715,2.911-1.828.449.714-1.027.645a2.173,2.173,0,0,1,.791.373.807.807,0,0,0,.948.116l.458.73a.766.766,0,0,1-.435.09,1.16,1.16,0,0,1-.645-.207.873.873,0,0,1,.035.193.894.894,0,0,1-.5.785l-1.418.89L2.8,72.409l1.229-.772q.6-.375.331-.8a.651.651,0,0,0-.58-.277,1.162,1.162,0,0,0-.66.169Z" fill="#1a1818"/>
      <path id="Path_2144" data-name="Path 2144" d="M6.107,72.276l.168-.424a2.013,2.013,0,0,1,1.017.627q.51.594,0,1.038L5.123,75.374l-.559-.653L6.405,73.14a.39.39,0,0,1,.037-.031l.038-.032c.216-.179.244-.363.082-.551a.853.853,0,0,0-.455-.25" fill="#1a1818"/>
      <path id="Path_2145" data-name="Path 2145" d="M7.3,76.771q.663.576,1.48-.362.742-.854.1-1.414a.783.783,0,0,0-1.04.011L7.3,74.449a1.39,1.39,0,0,1,1-.345,1.584,1.584,0,0,1,.993.4,1.673,1.673,0,0,1,.642,1.246,1.92,1.92,0,0,1-.538,1.3,1.785,1.785,0,0,1-1.177.667,1.632,1.632,0,0,1-1.273-.453,1.506,1.506,0,0,1-.539-.912,1.6,1.6,0,0,1,.216-1.045l.644.432a.76.76,0,0,0-.179.527.634.634,0,0,0,.211.5" fill="#1a1818"/>
      <path id="Path_2146" data-name="Path 2146" d="M9.116,73.065l2.229,1.621-.3.417L8.62,73.342Z" fill="#1a1818"/>
      <path id="Path_2147" data-name="Path 2147" d="M9.994,79.44,9.276,79l1.811-2.931.678.419-.341.552a1.159,1.159,0,0,1,1.232-.085,1.008,1.008,0,0,1,.388,1.564l-1.256,2.033-.731-.452,1.119-1.809q.367-.6-.057-.859a.661.661,0,0,0-.625-.021,1.016,1.016,0,0,0-.5.411Z" fill="#1a1818"/>
      <path id="Path_2148" data-name="Path 2148" d="M15.612,78.667l-.354.411a.9.9,0,0,0-.319-.261q-.326-.144-.449.134c-.013.023-.023.041-.028.053a.414.414,0,0,0,.1.455,1.124,1.124,0,0,0,.4.289l-.189.426a1.051,1.051,0,0,0-.389-.11.426.426,0,0,0-.367.219.241.241,0,0,0-.032.052l-.019.044q-.229.516.4.794.528.234.81-.4l.891-2.013.786.348-.937,2.117q-.5,1.119-1.812.536-1.455-.645-.977-1.725a.773.773,0,0,1,.423-.412,1.014,1.014,0,0,1,.275-.069.8.8,0,0,1-.087-.976.809.809,0,0,1,.474-.465.892.892,0,0,1,.674.046,1.776,1.776,0,0,1,.718.51" fill="#1a1818"/>
      <path id="Path_2149" data-name="Path 2149" d="M17.31,79.967l-.076-.45a2.016,2.016,0,0,1,1.2.01c.5.162.674.46.532.89l-.888,2.709-.817-.267.757-2.307a.261.261,0,0,1,.015-.046l.015-.047q.14-.4-.215-.514a.855.855,0,0,0-.518.022" fill="#1a1818"/>
      <path id="Path_2150" data-name="Path 2150" d="M22.439,81.757l-.536,2.32-.837-.194.38-1.644a3.465,3.465,0,0,0-.882-.116c-.372.02-.591.173-.657.461a.408.408,0,0,0,.1.389.671.671,0,0,0,.363.2.8.8,0,0,0,.452-.02l-.026.473a1.118,1.118,0,0,1-.9.084,1.131,1.131,0,0,1-.714-.474,1.018,1.018,0,0,1-.147-.84q.2-.872,1.5-.8a4.853,4.853,0,0,1,.8.117c.1.024.176.042.224.052l.059-.258q.109-.473-.6-.636a.633.633,0,0,0-.793.312l-.7-.274q.459-.9,1.791-.594,1.383.318,1.124,1.44" fill="#1a1818"/>
      <path id="Path_2151" data-name="Path 2151" d="M22.014,79.848a1.182,1.182,0,0,1-.472-.211.522.522,0,0,1-.278-.4l.637-.295a.572.572,0,0,0,.251.3.948.948,0,0,0,.367.159l1.241.222-.094.523Z" fill="#1a1818"/>
      <path id="Path_2152" data-name="Path 2152" d="M24.919,81.151l-.225.494a.886.886,0,0,0-.379-.161c-.235-.032-.366.053-.393.253q-.009.041-.012.06a.412.412,0,0,0,.227.407,1.125,1.125,0,0,0,.468.165l-.062.462a1.061,1.061,0,0,0-.4,0,.429.429,0,0,0-.291.313.213.213,0,0,0-.016.059l-.006.048q-.075.558.608.65.571.077.664-.614l.293-2.182.851.114-.307,2.294q-.163,1.213-1.589,1.022-1.578-.211-1.421-1.382a.774.774,0,0,1,.29-.514,1.039,1.039,0,0,1,.245-.143.8.8,0,0,1-.356-.912.81.81,0,0,1,.324-.58.892.892,0,0,1,.66-.145,1.767,1.767,0,0,1,.832.289" fill="#1a1818"/>
      <rect id="Rectangle_472" data-name="Rectangle 472" width="3.438" height="0.844" transform="translate(26.577 84.688) rotate(-85.629)" fill="#1a1818"/>
      <path id="Path_2153" data-name="Path 2153" d="M29.044,84.839l-.843-.021.086-3.444.8.02-.016.648a1.157,1.157,0,0,1,1.021-.694A1.008,1.008,0,0,1,31.212,82.5l-.059,2.389-.859-.022.053-2.126c.011-.468-.149-.705-.482-.714a.661.661,0,0,0-.55.3,1,1,0,0,0-.223.607Z" fill="#1a1818"/>
      <path id="Path_2154" data-name="Path 2154" d="M32.779,83.155a.867.867,0,0,1,.734-.381l.029.673c-.048,0-.093,0-.136,0a.546.546,0,0,0-.44.245.785.785,0,0,0-.142.5l.028.652-.843.037-.1-2.278a1.139,1.139,0,0,1,.366-1.009,1.841,1.841,0,0,1,1.077-.306q1.454-.063,1.507,1.187l.1,2.278-.859.037L34,82.48a.536.536,0,0,0-.633-.58q-.642.028-.616.631Z" fill="#1a1818"/>
      <path id="Path_2155" data-name="Path 2155" d="M35.934,79.746l.767-.072.19.5-.48.045c-.267.025-.394.107-.38.244a.436.436,0,0,0,.057.158c.034.062.062.109.081.142a.632.632,0,0,1,.068.238l.34,3.6-.84.079-.34-3.591a.753.753,0,0,0-.084-.293c-.053-.087-.1-.173-.155-.257a.411.411,0,0,1-.048-.159.466.466,0,0,1,.27-.464,1.309,1.309,0,0,1,.554-.167" fill="#1a1818"/>
      <path id="Path_2156" data-name="Path 2156" d="M40.284,84.092l-.741.111L39.4,83.56q-.273.785-.864.873a1.174,1.174,0,0,1-.879-.179,1.08,1.08,0,0,1-.455-.767l-.354-2.355.835-.126.315,2.1q.105.694.631.616a.627.627,0,0,0,.483-.379,1.051,1.051,0,0,0,.09-.635l-.283-1.889.849-.128Z" fill="#1a1818"/>
      <path id="Path_2157" data-name="Path 2157" d="M40.709,79l.754-.159.245.475-.473.1c-.261.055-.378.15-.349.285a.425.425,0,0,0,.075.15c.041.058.073.1.1.133a.6.6,0,0,1,.093.229l.746,3.535-.825.174-.745-3.529a.746.746,0,0,0-.116-.282c-.064-.081-.124-.16-.185-.238a.425.425,0,0,1-.064-.152.467.467,0,0,1,.215-.493A1.322,1.322,0,0,1,40.709,79" fill="#1a1818"/>
      <path id="Path_2158" data-name="Path 2158" d="M44.984,80.475l.641,2.293L44.8,83l-.455-1.626a3.464,3.464,0,0,0-.829.32.616.616,0,0,0-.356.719.4.4,0,0,0,.272.295.663.663,0,0,0,.414,0,.8.8,0,0,0,.388-.234l.2.427a1.316,1.316,0,0,1-1.6.43,1.014,1.014,0,0,1-.532-.667q-.24-.861.933-1.418a4.8,4.8,0,0,1,.756-.278l.222-.062-.072-.255q-.13-.468-.83-.272a.632.632,0,0,0-.547.653l-.744.1q-.029-1.012,1.287-1.38,1.366-.381,1.677.726" fill="#1a1818"/>
      <path id="Path_2159" data-name="Path 2159" d="M46.825,78.765l.042.541a.906.906,0,0,0-.41.042c-.22.086-.294.224-.22.413a.374.374,0,0,0,.018.058.41.41,0,0,0,.4.246,1.116,1.116,0,0,0,.489-.082l.17.434a1.068,1.068,0,0,0-.352.2.426.426,0,0,0-.1.415.181.181,0,0,0,.014.059l.018.046q.2.525.847.274.537-.21.283-.859l-.8-2.05.8-.313.842,2.156q.445,1.14-.894,1.664-1.485.579-1.913-.521a.776.776,0,0,1,0-.591,1.084,1.084,0,0,1,.145-.244q-.5.015-.753-.625a.8.8,0,0,1,0-.664.893.893,0,0,1,.507-.447,1.773,1.773,0,0,1,.868-.15" fill="#1a1818"/>
      <path id="Path_2160" data-name="Path 2160" d="M47.322,76.554l.428.938-2.731,1.244,0-.568,1.745-.795-.213-.469Z" fill="#1a1818"/>
      <path id="Path_2161" data-name="Path 2161" d="M51.759,77.457l1.113,2.109-.759.4-.789-1.492a3.481,3.481,0,0,0-.742.488.615.615,0,0,0-.2.779.411.411,0,0,0,.329.23.663.663,0,0,0,.406-.086.783.783,0,0,0,.328-.311l.29.375a1.319,1.319,0,0,1-1.474.758,1.012,1.012,0,0,1-.659-.539q-.42-.791.61-1.582a4.682,4.682,0,0,1,.68-.433l.2-.108-.123-.234q-.228-.429-.869-.089a.631.631,0,0,0-.4.754l-.708.25q-.241-.982.965-1.62a2.368,2.368,0,0,1,.525-.211,1.558,1.558,0,0,1,.19-.032.8.8,0,0,1,.185-.438,1.113,1.113,0,0,1,.359-.32.515.515,0,0,1,.066-.03l.371.563a.985.985,0,0,0-.184.076c-.132.069-.206.142-.224.219a.931.931,0,0,1,.166.105,1.311,1.311,0,0,1,.338.418" fill="#1a1818"/>
      <path id="Path_2162" data-name="Path 2162" d="M53.951,80.757l-.652.4-.249-.407a.365.365,0,0,1-.033-.052L53,80.663c-.07-.114-.151-.144-.243-.088l-.2.12-.111-.463.479-.293a.891.891,0,0,1,.257-.125.283.283,0,0,1,.294.169Z" fill="#1a1818"/>
      <path id="Path_2163" data-name="Path 2163" d="M54.04,75.767a.533.533,0,0,0-.7.023c-.321.227-.413.436-.277.63q.137.2.912-.143a3.614,3.614,0,0,1,.592-.22,1.075,1.075,0,0,1,.6.026.864.864,0,0,1,.436.315,1.025,1.025,0,0,1,.147,1.006,1.765,1.765,0,0,1-.678.813,1.528,1.528,0,0,1-1.621.315.674.674,0,0,1-.244-.192l.579-.571q.326.323.925-.1.493-.346.284-.643c-.1-.141-.32-.14-.662,0a5.238,5.238,0,0,1-.934.332.86.86,0,0,1-.887-.334,1.062,1.062,0,0,1-.187-.974,1.625,1.625,0,0,1,.65-.792,1.593,1.593,0,0,1,.809-.308,1.091,1.091,0,0,1,.812.258Z" fill="#1a1818"/>
      <path id="Path_2164" data-name="Path 2164" d="M59.177,74.616l-.546.514-.479-.45a1.13,1.13,0,0,1-.213,1.209,1.168,1.168,0,0,1-.825.353,1.067,1.067,0,0,1-.81-.371l-1.633-1.734.614-.578,1.457,1.547c.322.342.611.391.87.148a.627.627,0,0,0,.18-.588,1.046,1.046,0,0,0-.287-.572L56.2,72.7l.626-.589Z" fill="#1a1818"/>
      <path id="Path_2165" data-name="Path 2165" d="M57.775,72.013l-.448-.089a2.017,2.017,0,0,1,.432-1.113q.494-.609,1.023-.182L61,72.422l-.54.668-1.888-1.527a.393.393,0,0,1-.038-.03l-.038-.031c-.215-.18-.4-.175-.557.019a.848.848,0,0,0-.163.492" fill="#1a1818"/>
      <path id="Path_2166" data-name="Path 2166" d="M60.564,68.441a.533.533,0,0,0-.628.318c-.2.341-.19.57.015.688q.206.119.764-.514a3.776,3.776,0,0,1,.445-.449,1.072,1.072,0,0,1,.561-.231.869.869,0,0,1,.529.1,1.031,1.031,0,0,1,.556.85,1.758,1.758,0,0,1-.271,1.024q-.581,1.007-1.338.968a.659.659,0,0,1-.3-.071l.285-.761q.43.155.8-.481.3-.522-.014-.7c-.149-.086-.348.008-.6.281a5.291,5.291,0,0,1-.706.695.865.865,0,0,1-.947.072,1.059,1.059,0,0,1-.579-.806,1.833,1.833,0,0,1,.859-1.612,1.094,1.094,0,0,1,.845-.108Z" fill="#1a1818"/>
      <path id="Path_2167" data-name="Path 2167" d="M58.576,66.4l.943.414-1.2,2.748-.377-.426.771-1.757-.472-.207Z" fill="#1a1818"/>
    </g>
  </g>
</svg>
