<svg xmlns="http://www.w3.org/2000/svg" xmlns:xlink="http://www.w3.org/1999/xlink" viewBox="0 0 839.52 593.18"><defs><style>.cls-1,.cls-10,.cls-11,.cls-12,.cls-13,.cls-22,.cls-23{fill:none;}.cls-2{fill:#f68a1f;}.cls-3{fill:#cb7218;}.cls-4{fill:#818281;}.cls-5{fill:#6d6e71;}.cls-6{clip-path:url(#clip-path);}.cls-7{fill:url(#linear-gradient);}.cls-22,.cls-23,.cls-8{opacity:0.5;}.cls-9{opacity:0.05;}.cls-10,.cls-11,.cls-12{stroke:#000;opacity:0.15;}.cls-10,.cls-11,.cls-12,.cls-13,.cls-22,.cls-23{stroke-miterlimit:10;}.cls-10{stroke-width:0.89px;}.cls-11{stroke-width:1.1px;}.cls-12{stroke-width:0.7px;}.cls-13,.cls-22,.cls-23{stroke:#f47721;}.cls-13,.cls-22{stroke-width:0.5px;}.cls-14{opacity:0.65;}.cls-15{fill:url(#linear-gradient-2);}.cls-16,.cls-17,.cls-18,.cls-19,.cls-20,.cls-21{opacity:0.75;}.cls-16{fill:url(#linear-gradient-3);}.cls-17{fill:url(#linear-gradient-4);}.cls-18{fill:url(#linear-gradient-5);}.cls-19{fill:url(#linear-gradient-6);}.cls-20{fill:url(#linear-gradient-7);}.cls-21{fill:url(#linear-gradient-8);}.cls-23{stroke-width:0.43px;}.cls-24{clip-path:url(#clip-path-2);}.cls-25{fill:url(#New_Pattern_Swatch_17);}.cls-26{fill:url(#New_Pattern_Swatch_11);}.cls-27{fill:#b3b3b3;}.cls-28{fill:url(#New_Pattern_Swatch_15);}.cls-29{fill:#a7a9ac;}.cls-30{fill:#989897;}.cls-31{fill:#b4b2b4;}.cls-32{fill:url(#New_Pattern_Swatch_11-9);}.cls-33{fill:#c16d15;}.cls-34{fill:url(#New_Pattern_Swatch_17-7);}.cls-35{fill:#d3d4d4;}.cls-36{fill:url(#New_Pattern_Swatch_15-11);}.cls-37{fill:url(#New_Pattern_Swatch_17-17);}.cls-38{fill:url(#New_Pattern_Swatch_11-21);}.cls-39{clip-path:url(#clip-path-3);}.cls-40{fill:#fff;}</style><clipPath id="clip-path"><rect class="cls-1" width="839.52" height="593.18"/></clipPath><linearGradient id="linear-gradient" x1="674.09" y1="599.81" x2="674.09" y2="-12.86" gradientUnits="userSpaceOnUse"><stop offset="0.12" stop-color="#f07d23"/><stop offset="0.49" stop-color="#fbc43b"/><stop offset="0.9" stop-color="#fff"/></linearGradient><linearGradient id="linear-gradient-2" x1="4191.42" y1="818.39" x2="4191.42" y2="375.72" gradientTransform="matrix(-1, 0, 0, 1, 4924.23, 0)" gradientUnits="userSpaceOnUse"><stop offset="0.51" stop-color="#fbb03c"/><stop offset="1" stop-color="#f37226"/></linearGradient><linearGradient id="linear-gradient-3" x1="4087.79" y1="349.94" x2="4087.79" y2="164.07" gradientTransform="matrix(-1, 0, 0, 1, 4924.23, 0)" gradientUnits="userSpaceOnUse"><stop offset="0.01" stop-color="#f07d23"/><stop offset="0.78" stop-color="#fbc43b"/></linearGradient><linearGradient id="linear-gradient-4" x1="4057.79" y1="428.35" x2="4057.79" y2="634.64" gradientTransform="matrix(-1, 0, 0, 1, 4924.23, 0)" gradientUnits="userSpaceOnUse"><stop offset="0.01" stop-color="#f15c27"/><stop offset="0.43" stop-color="#fbb03c"/></linearGradient><linearGradient id="linear-gradient-5" x1="4088.01" y1="457.42" x2="4088.01" y2="366.76" gradientTransform="matrix(-1, 0, 0, 1, 4924.23, 0)" gradientUnits="userSpaceOnUse"><stop offset="0" stop-color="#f37226"/><stop offset="0.51" stop-color="#fbb03c"/></linearGradient><linearGradient id="linear-gradient-6" x1="4142.11" y1="275.19" x2="4142.11" y2="394.89" gradientTransform="matrix(-1, 0, 0, 1, 4924.23, 0)" gradientUnits="userSpaceOnUse"><stop offset="0.01" stop-color="#f07d23"/><stop offset="0.82" stop-color="#fbc43b"/></linearGradient><linearGradient id="linear-gradient-7" x1="867.54" y1="-893.2" x2="867.54" y2="-991.85" gradientTransform="matrix(1, 0, 0, -1, -249.58, -461.77)" gradientUnits="userSpaceOnUse"><stop offset="0.01" stop-color="#f07d23"/><stop offset="0.81" stop-color="#fbc43b"/></linearGradient><linearGradient id="linear-gradient-8" x1="829.53" y1="-976.02" x2="829.53" y2="-1350.3" xlink:href="#linear-gradient-7"/><clipPath id="clip-path-2"><rect class="cls-1" x="-1.25" y="352.68" width="841.89" height="240.5"/></clipPath><pattern id="New_Pattern_Swatch_17" data-name="New Pattern Swatch 17" width="63.28" height="63.24" patternTransform="translate(959.68 -757.85)" patternUnits="userSpaceOnUse" viewBox="0 0 63.27 63.24"><rect class="cls-1" width="63.28" height="63.24"/><rect class="cls-5" width="63.28" height="63.23"/><rect class="cls-1" x="33.56" y="23.02" width="6.65" height="6.64"/><polygon class="cls-1" points="62.66 53.9 54.02 53.89 54.01 62.5 62.64 62.51 62.66 53.9"/><path class="cls-1" d="M18.43,18.32,15.72,15.6l2.74,2.73H44.91l0,26.43H18.43ZM44,34.56H34.68V43.8h9.27Zm-24.57-6h9.28V19.29H19.4Zm0,15.26h0v0l0,0H33.71l0-10.2H44V19.29h0v0H29.62v10.2H19.38Z"/><rect class="cls-1" x="23.12" y="33.42" width="6.65" height="6.64"/><polygon class="cls-1" points="5.13 58.07 5.12 58.08 0.69 53.64 0.68 62.5 9.55 62.5 5.13 58.07"/><polygon class="cls-1" points="9.55 35.74 0.69 26.88 0.69 26.88 0.65 35.82 9.55 35.78 9.55 35.74"/><polygon class="cls-1" points="9.48 53.56 0.69 44.77 0.68 53.63 9.48 53.63 9.48 53.56"/><polygon class="cls-1" points="9.48 18.06 0.69 9.27 0.68 18.08 9.48 18.08 9.48 18.06"/><polygon class="cls-1" points="0.69 18.14 0.69 26.87 9.42 26.87 0.69 18.14"/><polygon class="cls-1" points="0.68 35.85 0.65 35.82 0.69 44.77 9.58 44.78 0.68 35.85"/><polygon class="cls-4" points="19.39 43.81 19.4 43.8 19.39 43.8 19.39 43.81"/><polygon class="cls-4" points="23.12 40.06 23.12 33.42 29.77 33.42 29.77 33.4 31.66 31.54 29.61 29.49 19.39 29.48 19.39 43.8 23.12 40.06 23.12 40.06"/><polygon class="cls-4" points="19.4 19.28 19.39 28.53 28.66 28.54 19.4 19.28"/><polygon class="cls-4" points="12.11 51.09 12.13 51.07 12.11 51.07 12.11 51.09"/><polygon class="cls-4" points="12.11 12 12.11 51.07 14.75 48.43 14.75 48.43 14.75 14.64 12.11 12"/><polygon class="cls-4" points="9.48 18.06 9.48 18.08 0.68 18.08 0.69 18.14 9.42 26.87 0.69 26.87 0.69 26.88 9.55 35.74 9.55 35.78 0.65 35.82 0.68 35.85 9.58 44.78 0.69 44.77 9.48 53.56 9.48 53.63 0.68 53.63 0.69 53.64 5.12 58.08 5.13 58.07 5.12 58.06 11.16 52.02 11.16 52.02 11.16 11.05 9.3 9.19 0.68 9.19 0.69 9.27 9.48 18.06"/><polygon class="cls-4" points="18.43 44.75 18.43 18.32 15.72 15.6 15.7 47.48 18.43 44.75 18.43 44.75"/><polygon class="cls-4" points="15.7 47.49 15.72 47.48 15.7 47.48 15.7 47.49"/><polygon class="cls-1" points="27.02 0.59 35.89 9.45 35.93 9.45 35.96 0.55 27.02 0.59 27.02 0.59"/><polygon class="cls-1" points="53.71 9.39 53.77 9.38 53.77 0.58 44.91 0.59 53.71 9.39"/><polygon class="cls-1" points="18.21 9.38 18.22 9.38 18.22 0.58 9.41 0.59 18.21 9.38"/><polygon class="cls-1" points="27.02 9.32 27.02 0.59 18.28 0.59 27.02 9.32"/><polygon class="cls-1" points="35.99 0.58 44.93 9.48 44.91 0.59 35.96 0.55 35.99 0.58"/><polygon class="cls-4" points="31.67 31.54 33.56 29.66 33.56 29.66 33.56 23.02 40.22 23.02 40.22 23.01 43.94 19.29 29.63 19.29 29.61 29.49 31.66 31.54 31.67 31.54"/><polygon class="cls-4" points="43.96 19.29 43.95 19.29 43.95 19.29 43.96 19.29"/><polygon class="cls-4" points="28.67 19.29 19.4 19.28 28.66 28.54 28.67 19.29"/><polygon class="cls-4" points="51.23 12.02 51.23 12.02 51.23 12.02 51.23 12.02"/><polygon class="cls-4" points="51.21 12.02 12.14 12.02 14.78 14.65 48.59 14.65 48.59 14.64 51.21 12.02"/><polygon class="cls-4" points="58.21 5.01 53.78 0.59 53.77 0.58 53.77 9.38 53.71 9.39 44.91 0.59 44.93 9.48 35.99 0.58 35.96 0.55 35.93 9.45 35.89 9.45 27.02 0.59 27.02 0.59 27.02 9.32 18.28 0.59 18.22 0.58 18.22 9.38 18.21 9.38 9.41 0.59 9.33 0.58 9.33 9.21 11.19 11.06 52.18 11.06 52.18 11.05 58.21 5.01"/><polygon class="cls-4" points="44.91 18.34 44.91 18.32 47.62 15.61 15.72 15.6 18.46 18.34 44.91 18.34"/><polygon class="cls-4" points="47.64 15.61 47.63 15.61 47.63 15.61 47.64 15.61"/><polygon class="cls-1" points="45.13 53.7 45.12 53.7 45.12 62.5 53.93 62.5 45.13 53.7"/><polygon class="cls-1" points="36.32 62.5 27.45 53.63 27.41 53.63 27.38 62.53 36.32 62.5 36.32 62.5"/><polygon class="cls-1" points="27.34 62.5 18.41 53.61 18.43 62.5 27.38 62.53 27.34 62.5"/><polygon class="cls-1" points="36.32 53.77 36.32 62.5 45.05 62.5 36.32 53.77"/><polygon class="cls-1" points="9.63 53.7 9.57 53.7 9.57 62.5 18.43 62.5 9.63 53.7"/><polygon class="cls-1" points="53.86 45.01 53.86 45.02 62.66 53.82 62.66 45.01 53.86 45.01"/><polygon class="cls-1" points="53.92 36.21 62.66 44.95 62.65 36.21 53.92 36.21"/><polygon class="cls-1" points="53.76 18.3 62.66 27.23 62.69 27.27 62.65 18.32 53.76 18.3"/><polygon class="cls-1" points="62.69 27.27 53.79 27.3 53.79 27.34 62.65 36.21 62.66 36.21 62.69 27.27"/><polygon class="cls-1" points="53.86 9.46 53.85 9.52 62.65 18.32 62.66 9.46 53.86 9.46"/><polygon class="cls-4" points="0.68 62.51 0.68 62.51 0.68 62.51 0.68 62.51"/><rect class="cls-4" x="0.68" y="62.5" height="0.01"/><polygon class="cls-4" points="31.67 31.55 29.78 33.42 29.77 33.42 29.77 40.06 23.12 40.06 23.12 40.08 19.4 43.8 33.71 43.8 33.73 33.6 31.68 31.55 31.67 31.55"/><polygon class="cls-4" points="19.39 43.8 19.39 43.8 19.38 43.8 19.39 43.8"/><polygon class="cls-4" points="31.67 31.55 31.66 31.54 29.77 33.4 29.77 33.42 29.78 33.42 31.67 31.55"/><polygon class="cls-4" points="19.4 43.8 23.12 40.08 23.12 40.06 23.12 40.06 19.39 43.8 19.39 43.8 19.4 43.8"/><polygon class="cls-4" points="31.68 31.55 31.67 31.54 31.66 31.54 31.67 31.55 31.68 31.55"/><polygon class="cls-4" points="34.67 43.8 43.94 43.81 34.69 34.55 34.67 43.8"/><polygon class="cls-4" points="0.68 62.5 0.68 62.5 0.68 62.5 0.68 62.5 0.68 62.5 0.68 62.5 0.68 62.5 0.68 62.5 0.68 62.5 0.68 62.5"/><polygon class="cls-4" points="0.68 62.5 0.68 62.5 0.68 62.5 0.68 62.5 0.68 62.5 0.68 62.5 0.68 62.5"/><polygon class="cls-4" points="12.11 51.07 12.11 51.07 12.11 51.07 12.11 51.07"/><polygon class="cls-4" points="12.13 51.07 51.21 51.08 48.57 48.44 14.75 48.43 14.75 48.45 12.13 51.07"/><polygon class="cls-4" points="12.11 51.07 12.11 51.07 12.13 51.07 14.75 48.45 14.75 48.43 14.75 48.43 12.11 51.07"/><polygon class="cls-4" points="5.13 58.07 9.55 62.5 9.57 62.5 9.57 53.7 9.63 53.7 18.43 62.5 18.41 53.61 27.34 62.5 27.38 62.53 27.41 53.63 27.45 53.63 36.32 62.5 36.32 62.5 36.32 53.77 45.05 62.5 45.12 62.5 45.12 53.7 45.13 53.7 53.93 62.5 54.01 62.5 54.02 53.89 52.16 52.03 11.16 52.02 11.16 52.04 5.13 58.07"/><polygon class="cls-4" points="5.12 58.06 5.13 58.07 11.16 52.04 11.16 52.02 11.16 52.02 5.12 58.06"/><polygon class="cls-4" points="18.43 44.75 18.43 44.77 15.72 47.48 47.62 47.49 44.89 44.76 18.43 44.75"/><polygon class="cls-4" points="15.7 47.48 15.7 47.48 15.7 47.48 15.7 47.48"/><polygon class="cls-4" points="18.43 44.75 18.43 44.75 15.7 47.48 15.7 47.48 15.72 47.48 18.43 44.77 18.43 44.75"/><polygon class="cls-4" points="40.22 23.02 40.22 29.66 33.56 29.66 33.56 29.68 31.68 31.55 33.73 33.6 43.95 33.6 43.95 19.29 40.22 23.02 40.22 23.02"/><polygon class="cls-4" points="43.95 19.27 43.94 19.29 43.95 19.29 43.95 19.27"/><polygon class="cls-4" points="40.22 23.02 40.22 23.02 43.95 19.29 43.95 19.29 43.94 19.29 40.22 23.01 40.22 23.02"/><polygon class="cls-4" points="33.56 29.68 33.56 29.66 33.56 29.66 31.67 31.54 31.68 31.55 33.56 29.68"/><polygon class="cls-4" points="43.94 43.81 43.95 34.56 34.69 34.55 43.94 43.81"/><polygon class="cls-4" points="51.23 12 51.21 12.02 51.23 12.02 51.23 12"/><polygon class="cls-4" points="51.23 12.02 48.59 14.65 48.59 14.65 48.57 48.44 51.21 51.08 51.23 12.02"/><polygon class="cls-4" points="51.23 12.02 51.23 12.02 51.21 12.02 48.59 14.64 48.59 14.65 48.59 14.65 51.23 12.02"/><polygon class="cls-4" points="62.66 53.9 62.66 53.82 53.86 45.02 53.86 45.01 62.66 45.01 62.66 44.95 53.92 36.21 62.65 36.21 62.65 36.21 53.79 27.34 53.79 27.3 62.69 27.27 62.66 27.23 53.76 18.3 62.65 18.32 53.85 9.52 53.86 9.46 62.66 9.46 62.65 9.45 58.22 5.01 58.21 5.01 58.22 5.02 52.18 11.06 52.18 11.06 52.16 52.03 54.02 53.89 62.66 53.9"/><polygon class="cls-4" points="58.22 5.02 58.21 5.01 52.18 11.05 52.18 11.06 52.18 11.06 58.22 5.02"/><polygon class="cls-4" points="47.62 15.61 47.63 15.61 47.63 15.59 47.62 15.61"/><polygon class="cls-4" points="44.91 18.34 44.89 44.76 47.62 47.49 47.63 15.61 44.91 18.34 44.91 18.34"/><polygon class="cls-4" points="44.91 18.32 44.91 18.34 44.91 18.34 47.63 15.61 47.63 15.61 47.62 15.61 44.91 18.32"/><path class="cls-4" d="M63.28,0H0V63.24H63.28ZM.25.25H63V63H.25Z"/></pattern><pattern id="New_Pattern_Swatch_11" data-name="New Pattern Swatch 11" width="63.28" height="63.24" patternTransform="translate(959.68 -757.85)" patternUnits="userSpaceOnUse" viewBox="0 0 63.27 63.24"><rect class="cls-1" width="63.28" height="63.24"/><rect class="cls-2" width="63.28" height="63.23"/><rect class="cls-1" x="33.56" y="23.02" width="6.65" height="6.64"/><polygon class="cls-1" points="62.66 53.9 54.02 53.89 54.01 62.5 62.64 62.51 62.66 53.9"/><path class="cls-1" d="M18.43,18.32,15.72,15.6l2.74,2.74H44.91l0,26.43H18.43ZM44,34.56H34.68V43.8h9.27Zm-24.57-6h9.28V19.29H19.4Zm0,15.26H33.71l0-10.2H44V19.29h0v0H29.62v10.2H19.38Z"/><rect class="cls-1" x="23.12" y="33.42" width="6.65" height="6.64"/><polygon class="cls-1" points="5.13 58.07 5.12 58.08 0.69 53.64 0.68 62.5 9.55 62.5 5.13 58.07"/><polygon class="cls-1" points="9.55 35.74 0.69 26.88 0.69 26.88 0.65 35.82 9.55 35.78 9.55 35.74"/><polygon class="cls-1" points="9.48 53.56 0.69 44.77 0.68 53.63 9.48 53.63 9.48 53.56"/><polygon class="cls-1" points="9.48 18.06 0.69 9.27 0.68 18.08 9.48 18.08 9.48 18.06"/><polygon class="cls-1" points="0.69 18.14 0.69 26.87 9.42 26.87 0.69 18.14"/><polygon class="cls-1" points="0.68 35.85 0.65 35.82 0.69 44.77 9.58 44.78 0.68 35.85"/><polygon class="cls-3" points="19.39 43.81 19.4 43.8 19.39 43.8 19.39 43.81"/><polygon class="cls-3" points="23.12 40.06 23.12 33.42 29.77 33.42 29.77 33.4 31.66 31.54 29.61 29.49 19.39 29.48 19.39 43.8 23.12 40.06 23.12 40.06"/><polygon class="cls-3" points="19.4 19.28 19.39 28.53 28.66 28.54 19.4 19.28"/><polygon class="cls-3" points="12.11 51.09 12.13 51.07 12.11 51.07 12.11 51.09"/><polygon class="cls-3" points="12.11 12 12.11 51.07 14.75 48.43 14.75 48.43 14.75 14.64 12.11 12"/><polygon class="cls-3" points="9.48 18.06 9.48 18.08 0.68 18.08 0.69 18.14 9.42 26.87 0.69 26.87 0.69 26.88 9.55 35.74 9.55 35.78 0.65 35.82 0.68 35.85 9.58 44.78 0.69 44.77 9.48 53.56 9.48 53.63 0.68 53.63 0.69 53.64 5.12 58.08 5.13 58.07 5.12 58.06 11.16 52.02 11.16 52.02 11.16 11.05 9.3 9.19 0.68 9.19 0.69 9.27 9.48 18.06"/><polygon class="cls-3" points="18.43 44.75 18.43 18.32 15.72 15.6 15.7 47.48 18.43 44.75 18.43 44.75"/><polygon class="cls-3" points="15.7 47.49 15.72 47.48 15.7 47.48 15.7 47.49"/><polygon class="cls-1" points="27.02 0.59 35.89 9.45 35.93 9.45 35.96 0.55 27.02 0.59 27.02 0.59"/><polygon class="cls-1" points="53.71 9.38 53.77 9.38 53.77 0.58 44.91 0.59 53.71 9.38"/><polygon class="cls-1" points="18.21 9.38 18.22 9.38 18.22 0.58 9.41 0.59 18.21 9.38"/><polygon class="cls-1" points="27.02 9.32 27.02 0.59 18.28 0.59 27.02 9.32"/><polygon class="cls-1" points="35.99 0.58 44.93 9.48 44.91 0.59 35.96 0.55 35.99 0.58"/><polygon class="cls-3" points="31.67 31.54 33.56 29.66 33.56 29.66 33.56 23.02 40.22 23.02 40.22 23.01 43.94 19.29 29.63 19.29 29.61 29.49 31.66 31.54 31.67 31.54"/><polygon class="cls-3" points="43.96 19.29 43.95 19.29 43.95 19.29 43.96 19.29"/><polygon class="cls-3" points="28.67 19.29 19.4 19.28 28.66 28.54 28.67 19.29"/><polygon class="cls-3" points="51.23 12.02 51.23 12.02 51.23 12.02 51.23 12.02"/><polygon class="cls-3" points="51.21 12.02 12.14 12.02 14.78 14.65 48.59 14.65 48.59 14.64 51.21 12.02"/><polygon class="cls-3" points="58.21 5.01 53.78 0.59 53.77 0.58 53.77 9.38 53.71 9.38 44.91 0.59 44.93 9.48 35.99 0.58 35.96 0.55 35.93 9.45 35.89 9.45 27.02 0.59 27.02 0.59 27.02 9.32 18.28 0.59 18.22 0.58 18.22 9.38 18.21 9.38 9.41 0.59 9.33 0.58 9.33 9.21 11.19 11.06 52.18 11.06 52.18 11.05 58.21 5.01"/><polygon class="cls-3" points="44.91 18.33 44.91 18.32 47.62 15.61 15.72 15.6 18.46 18.34 44.91 18.33"/><polygon class="cls-3" points="47.64 15.61 47.63 15.61 47.63 15.61 47.64 15.61"/><polygon class="cls-1" points="45.13 53.7 45.12 53.7 45.12 62.5 53.93 62.5 45.13 53.7"/><polygon class="cls-1" points="36.32 62.5 27.45 53.63 27.41 53.63 27.38 62.53 36.32 62.5 36.32 62.5"/><polygon class="cls-1" points="27.34 62.5 18.41 53.61 18.43 62.5 27.38 62.53 27.34 62.5"/><polygon class="cls-1" points="36.32 53.77 36.32 62.5 45.05 62.5 36.32 53.77"/><polygon class="cls-1" points="9.63 53.7 9.57 53.7 9.57 62.5 18.43 62.5 9.63 53.7"/><polygon class="cls-1" points="53.86 45.01 53.86 45.02 62.66 53.82 62.66 45.01 53.86 45.01"/><polygon class="cls-1" points="53.92 36.21 62.66 44.95 62.65 36.21 53.92 36.21"/><polygon class="cls-1" points="53.76 18.3 62.66 27.23 62.69 27.27 62.65 18.32 53.76 18.3"/><polygon class="cls-1" points="62.69 27.27 53.79 27.3 53.79 27.34 62.65 36.21 62.66 36.21 62.69 27.27"/><polygon class="cls-1" points="53.86 9.46 53.85 9.52 62.65 18.32 62.66 9.46 53.86 9.46"/><polygon class="cls-3" points="0.68 62.51 0.68 62.51 0.68 62.51 0.68 62.51"/><rect class="cls-3" x="0.68" y="62.5" height="0.01"/><polygon class="cls-3" points="31.67 31.55 29.78 33.42 29.77 33.42 29.77 40.06 23.12 40.06 23.12 40.08 19.4 43.8 33.71 43.8 33.73 33.6 31.68 31.55 31.67 31.55"/><polygon class="cls-3" points="19.39 43.8 19.39 43.8 19.38 43.8 19.39 43.8"/><polygon class="cls-3" points="31.67 31.55 31.66 31.54 29.77 33.4 29.77 33.42 29.78 33.42 31.67 31.55"/><polygon class="cls-3" points="19.4 43.8 23.12 40.08 23.12 40.06 23.12 40.06 19.39 43.8 19.39 43.8 19.4 43.8"/><polygon class="cls-3" points="31.68 31.55 31.67 31.54 31.66 31.54 31.67 31.55 31.68 31.55"/><polygon class="cls-3" points="34.67 43.8 43.94 43.81 34.69 34.55 34.67 43.8"/><polygon class="cls-3" points="0.68 62.5 0.68 62.5 0.68 62.5 0.68 62.5 0.68 62.5 0.68 62.5 0.68 62.5 0.68 62.5 0.68 62.5 0.68 62.5"/><polygon class="cls-3" points="0.68 62.5 0.68 62.5 0.68 62.5 0.68 62.5 0.68 62.5 0.68 62.5 0.68 62.5"/><polygon class="cls-3" points="12.11 51.07 12.11 51.07 12.11 51.07 12.11 51.07"/><polygon class="cls-3" points="12.13 51.07 51.21 51.08 48.57 48.44 14.75 48.43 14.75 48.45 12.13 51.07"/><polygon class="cls-3" points="12.11 51.07 12.11 51.07 12.13 51.07 14.75 48.45 14.75 48.43 14.75 48.43 12.11 51.07"/><polygon class="cls-3" points="5.13 58.07 9.55 62.5 9.57 62.5 9.57 53.7 9.63 53.7 18.43 62.5 18.41 53.61 27.34 62.5 27.38 62.53 27.41 53.63 27.45 53.63 36.32 62.5 36.32 62.5 36.32 53.77 45.05 62.5 45.12 62.5 45.12 53.7 45.13 53.7 53.93 62.5 54.01 62.5 54.02 53.89 52.16 52.03 11.16 52.02 11.16 52.04 5.13 58.07"/><polygon class="cls-3" points="5.12 58.06 5.13 58.07 11.16 52.04 11.16 52.02 11.16 52.02 5.12 58.06"/><polygon class="cls-3" points="18.43 44.75 18.43 44.77 15.72 47.48 47.62 47.49 44.89 44.76 18.43 44.75"/><polygon class="cls-3" points="15.7 47.48 15.7 47.48 15.7 47.48 15.7 47.48"/><polygon class="cls-3" points="18.43 44.75 18.43 44.75 15.7 47.48 15.7 47.48 15.72 47.48 18.43 44.77 18.43 44.75"/><polygon class="cls-3" points="40.22 23.02 40.22 29.66 33.56 29.66 33.56 29.68 31.68 31.55 33.73 33.6 43.95 33.6 43.95 19.29 40.22 23.02 40.22 23.02"/><polygon class="cls-3" points="43.95 19.27 43.94 19.29 43.95 19.29 43.95 19.27"/><polygon class="cls-3" points="40.22 23.02 40.22 23.02 43.95 19.29 43.95 19.29 43.94 19.29 40.22 23.01 40.22 23.02"/><polygon class="cls-3" points="33.56 29.68 33.56 29.66 33.56 29.66 31.67 31.54 31.68 31.55 33.56 29.68"/><polygon class="cls-3" points="43.94 43.81 43.95 34.56 34.69 34.55 43.94 43.81"/><polygon class="cls-3" points="51.23 12 51.21 12.02 51.23 12.02 51.23 12"/><polygon class="cls-3" points="51.23 12.02 48.59 14.65 48.59 14.65 48.57 48.44 51.21 51.08 51.23 12.02"/><polygon class="cls-3" points="51.23 12.02 51.23 12.02 51.21 12.02 48.59 14.64 48.59 14.65 48.59 14.65 51.23 12.02"/><polygon class="cls-3" points="62.66 53.9 62.66 53.82 53.86 45.02 53.86 45.01 62.66 45.01 62.66 44.95 53.92 36.21 62.65 36.21 62.65 36.21 53.79 27.34 53.79 27.3 62.69 27.27 62.66 27.23 53.76 18.3 62.65 18.32 53.85 9.52 53.86 9.46 62.66 9.46 62.65 9.45 58.22 5.01 58.21 5.01 58.22 5.02 52.18 11.06 52.18 11.06 52.16 52.03 54.02 53.89 62.66 53.9"/><polygon class="cls-3" points="58.22 5.02 58.21 5.01 52.18 11.05 52.18 11.06 52.18 11.06 58.22 5.02"/><polygon class="cls-3" points="47.62 15.61 47.63 15.61 47.63 15.59 47.62 15.61"/><polygon class="cls-3" points="44.91 18.33 44.89 44.76 47.62 47.49 47.63 15.61 44.91 18.33 44.91 18.33"/><polygon class="cls-3" points="44.91 18.32 44.91 18.33 44.91 18.33 47.63 15.61 47.63 15.61 47.62 15.61 44.91 18.32"/><path class="cls-3" d="M63.28,0H0V63.24H63.28ZM.25.25H63V63H.25Z"/></pattern><pattern id="New_Pattern_Swatch_15" data-name="New Pattern Swatch 15" width="63.28" height="63.24" patternTransform="translate(943.82 -757.85)" patternUnits="userSpaceOnUse" viewBox="0 0 63.27 63.24"><rect class="cls-1" width="63.28" height="63.24"/><rect class="cls-4" width="63.28" height="63.23"/><rect class="cls-1" x="33.56" y="23.02" width="6.65" height="6.64"/><polygon class="cls-1" points="62.66 53.9 54.02 53.89 54.01 62.5 62.64 62.51 62.66 53.9"/><path class="cls-1" d="M18.43,18.32,15.72,15.6l2.74,2.73H44.91l0,26.43H18.43ZM44,34.56H34.68V43.8h9.27Zm-24.57-6h9.28V19.29H19.4Zm0,15.26h0v0l0,0H33.71l0-10.2H44V19.29h0v0H29.62v10.2H19.38Z"/><rect class="cls-1" x="23.12" y="33.42" width="6.65" height="6.64"/><polygon class="cls-1" points="5.13 58.07 5.12 58.08 0.69 53.64 0.68 62.5 9.55 62.5 5.13 58.07"/><polygon class="cls-1" points="9.55 35.74 0.69 26.88 0.69 26.88 0.65 35.82 9.55 35.78 9.55 35.74"/><polygon class="cls-1" points="9.48 53.56 0.69 44.77 0.68 53.63 9.48 53.63 9.48 53.56"/><polygon class="cls-1" points="9.48 18.06 0.69 9.27 0.68 18.08 9.48 18.08 9.48 18.06"/><polygon class="cls-1" points="0.69 18.14 0.69 26.87 9.42 26.87 0.69 18.14"/><polygon class="cls-1" points="0.68 35.85 0.65 35.82 0.69 44.77 9.58 44.78 0.68 35.85"/><polygon class="cls-5" points="19.39 43.81 19.4 43.8 19.39 43.8 19.39 43.81"/><polygon class="cls-5" points="23.12 40.06 23.12 33.42 29.77 33.42 29.77 33.4 31.66 31.54 29.61 29.49 19.39 29.48 19.39 43.8 23.12 40.06 23.12 40.06"/><polygon class="cls-5" points="19.4 19.28 19.39 28.53 28.66 28.54 19.4 19.28"/><polygon class="cls-5" points="12.11 51.09 12.13 51.07 12.11 51.07 12.11 51.09"/><polygon class="cls-5" points="12.11 12 12.11 51.07 14.75 48.43 14.75 48.43 14.75 14.64 12.11 12"/><polygon class="cls-5" points="9.48 18.06 9.48 18.08 0.68 18.08 0.69 18.14 9.42 26.87 0.69 26.87 0.69 26.88 9.55 35.74 9.55 35.78 0.65 35.82 0.68 35.85 9.58 44.78 0.69 44.77 9.48 53.56 9.48 53.63 0.68 53.63 0.69 53.64 5.12 58.08 5.13 58.07 5.12 58.06 11.16 52.02 11.16 52.02 11.16 11.05 9.3 9.19 0.68 9.19 0.69 9.27 9.48 18.06"/><polygon class="cls-5" points="18.43 44.75 18.43 18.32 15.72 15.6 15.7 47.48 18.43 44.75 18.43 44.75"/><polygon class="cls-5" points="15.7 47.49 15.72 47.48 15.7 47.48 15.7 47.49"/><polygon class="cls-1" points="27.02 0.59 35.89 9.45 35.93 9.45 35.96 0.55 27.02 0.59 27.02 0.59"/><polygon class="cls-1" points="53.71 9.39 53.77 9.38 53.77 0.58 44.91 0.59 53.71 9.39"/><polygon class="cls-1" points="18.21 9.38 18.22 9.38 18.22 0.58 9.41 0.59 18.21 9.38"/><polygon class="cls-1" points="27.02 9.32 27.02 0.59 18.28 0.59 27.02 9.32"/><polygon class="cls-1" points="35.99 0.58 44.93 9.48 44.91 0.59 35.96 0.55 35.99 0.58"/><polygon class="cls-5" points="31.67 31.54 33.56 29.66 33.56 29.66 33.56 23.02 40.22 23.02 40.22 23.01 43.94 19.29 29.63 19.29 29.61 29.49 31.66 31.54 31.67 31.54"/><polygon class="cls-5" points="43.96 19.29 43.95 19.29 43.95 19.29 43.96 19.29"/><polygon class="cls-5" points="28.67 19.29 19.4 19.28 28.66 28.54 28.67 19.29"/><polygon class="cls-5" points="51.23 12.02 51.23 12.02 51.23 12.02 51.23 12.02"/><polygon class="cls-5" points="51.21 12.02 12.14 12.02 14.78 14.65 48.59 14.65 48.59 14.64 51.21 12.02"/><polygon class="cls-5" points="58.21 5.01 53.78 0.59 53.77 0.58 53.77 9.38 53.71 9.39 44.91 0.59 44.93 9.48 35.99 0.58 35.96 0.55 35.93 9.45 35.89 9.45 27.02 0.59 27.02 0.59 27.02 9.32 18.28 0.59 18.22 0.58 18.22 9.38 18.21 9.38 9.41 0.59 9.33 0.58 9.33 9.21 11.19 11.06 52.18 11.06 52.18 11.05 58.21 5.01"/><polygon class="cls-5" points="44.91 18.34 44.91 18.32 47.62 15.61 15.72 15.6 18.46 18.34 44.91 18.34"/><polygon class="cls-5" points="47.64 15.61 47.63 15.61 47.63 15.61 47.64 15.61"/><polygon class="cls-1" points="45.13 53.7 45.12 53.7 45.12 62.5 53.93 62.5 45.13 53.7"/><polygon class="cls-1" points="36.32 62.5 27.45 53.63 27.41 53.63 27.38 62.53 36.32 62.5 36.32 62.5"/><polygon class="cls-1" points="27.34 62.5 18.41 53.61 18.43 62.5 27.38 62.53 27.34 62.5"/><polygon class="cls-1" points="36.32 53.77 36.32 62.5 45.05 62.5 36.32 53.77"/><polygon class="cls-1" points="9.63 53.7 9.57 53.7 9.57 62.5 18.43 62.5 9.63 53.7"/><polygon class="cls-1" points="53.86 45.01 53.86 45.02 62.66 53.82 62.66 45.01 53.86 45.01"/><polygon class="cls-1" points="53.92 36.21 62.66 44.95 62.65 36.21 53.92 36.21"/><polygon class="cls-1" points="53.76 18.3 62.66 27.23 62.69 27.27 62.65 18.32 53.76 18.3"/><polygon class="cls-1" points="62.69 27.27 53.79 27.3 53.79 27.34 62.65 36.21 62.66 36.21 62.69 27.27"/><polygon class="cls-1" points="53.86 9.46 53.85 9.52 62.65 18.32 62.66 9.46 53.86 9.46"/><polygon class="cls-5" points="0.68 62.51 0.68 62.51 0.68 62.51 0.68 62.51"/><rect class="cls-5" x="0.68" y="62.5" height="0.01"/><polygon class="cls-5" points="31.67 31.55 29.78 33.42 29.77 33.42 29.77 40.06 23.12 40.06 23.12 40.08 19.4 43.8 33.71 43.8 33.73 33.6 31.68 31.55 31.67 31.55"/><polygon class="cls-5" points="19.39 43.8 19.39 43.8 19.38 43.8 19.39 43.8"/><polygon class="cls-5" points="31.67 31.55 31.66 31.54 29.77 33.4 29.77 33.42 29.78 33.42 31.67 31.55"/><polygon class="cls-5" points="19.4 43.8 23.12 40.08 23.12 40.06 23.12 40.06 19.39 43.8 19.39 43.8 19.4 43.8"/><polygon class="cls-5" points="31.68 31.55 31.67 31.54 31.66 31.54 31.67 31.55 31.68 31.55"/><polygon class="cls-5" points="34.67 43.8 43.94 43.81 34.69 34.55 34.67 43.8"/><polygon class="cls-5" points="0.68 62.5 0.68 62.5 0.68 62.5 0.68 62.5 0.68 62.5 0.68 62.5 0.68 62.5 0.68 62.5 0.68 62.5 0.68 62.5"/><polygon class="cls-5" points="0.68 62.5 0.68 62.5 0.68 62.5 0.68 62.5 0.68 62.5 0.68 62.5 0.68 62.5"/><polygon class="cls-5" points="12.11 51.07 12.11 51.07 12.11 51.07 12.11 51.07"/><polygon class="cls-5" points="12.13 51.07 51.21 51.08 48.57 48.44 14.75 48.43 14.75 48.45 12.13 51.07"/><polygon class="cls-5" points="12.11 51.07 12.11 51.07 12.13 51.07 14.75 48.45 14.75 48.43 14.75 48.43 12.11 51.07"/><polygon class="cls-5" points="5.13 58.07 9.55 62.5 9.57 62.5 9.57 53.7 9.63 53.7 18.43 62.5 18.41 53.61 27.34 62.5 27.38 62.53 27.41 53.63 27.45 53.63 36.32 62.5 36.32 62.5 36.32 53.77 45.05 62.5 45.12 62.5 45.12 53.7 45.13 53.7 53.93 62.5 54.01 62.5 54.02 53.89 52.16 52.03 11.16 52.02 11.16 52.04 5.13 58.07"/><polygon class="cls-5" points="5.12 58.06 5.13 58.07 11.16 52.04 11.16 52.02 11.16 52.02 5.12 58.06"/><polygon class="cls-5" points="18.43 44.75 18.43 44.77 15.72 47.48 47.62 47.49 44.89 44.76 18.43 44.75"/><polygon class="cls-5" points="15.7 47.48 15.7 47.48 15.7 47.48 15.7 47.48"/><polygon class="cls-5" points="18.43 44.75 18.43 44.75 15.7 47.48 15.7 47.48 15.72 47.48 18.43 44.77 18.43 44.75"/><polygon class="cls-5" points="40.22 23.02 40.22 29.66 33.56 29.66 33.56 29.68 31.68 31.55 33.73 33.6 43.95 33.6 43.95 19.29 40.22 23.02 40.22 23.02"/><polygon class="cls-5" points="43.95 19.27 43.94 19.29 43.95 19.29 43.95 19.27"/><polygon class="cls-5" points="40.22 23.02 40.22 23.02 43.95 19.29 43.95 19.29 43.94 19.29 40.22 23.01 40.22 23.02"/><polygon class="cls-5" points="33.56 29.68 33.56 29.66 33.56 29.66 31.67 31.54 31.68 31.55 33.56 29.68"/><polygon class="cls-5" points="43.94 43.81 43.95 34.56 34.69 34.55 43.94 43.81"/><polygon class="cls-5" points="51.23 12 51.21 12.02 51.23 12.02 51.23 12"/><polygon class="cls-5" points="51.23 12.02 48.59 14.65 48.59 14.65 48.57 48.44 51.21 51.08 51.23 12.02"/><polygon class="cls-5" points="51.23 12.02 51.23 12.02 51.21 12.02 48.59 14.64 48.59 14.65 48.59 14.65 51.23 12.02"/><polygon class="cls-5" points="62.66 53.9 62.66 53.82 53.86 45.02 53.86 45.01 62.66 45.01 62.66 44.95 53.92 36.21 62.65 36.21 62.65 36.21 53.79 27.34 53.79 27.3 62.69 27.27 62.66 27.23 53.76 18.3 62.65 18.32 53.85 9.52 53.86 9.46 62.66 9.46 62.65 9.45 58.22 5.01 58.21 5.01 58.22 5.02 52.18 11.06 52.18 11.06 52.16 52.03 54.02 53.89 62.66 53.9"/><polygon class="cls-5" points="58.22 5.02 58.21 5.01 52.18 11.05 52.18 11.06 52.18 11.06 58.22 5.02"/><polygon class="cls-5" points="47.62 15.61 47.63 15.61 47.63 15.59 47.62 15.61"/><polygon class="cls-5" points="44.91 18.34 44.89 44.76 47.62 47.49 47.63 15.61 44.91 18.34 44.91 18.34"/><polygon class="cls-5" points="44.91 18.32 44.91 18.34 44.91 18.34 47.63 15.61 47.63 15.61 47.62 15.61 44.91 18.32"/><path class="cls-5" d="M63.28,0H0V63.24H63.28ZM.25.25H63V63H.25Z"/></pattern><pattern id="New_Pattern_Swatch_11-9" data-name="New Pattern Swatch 11" width="63.28" height="63.24" patternTransform="translate(1252.12 -757.85) scale(1.04 1)" patternUnits="userSpaceOnUse" viewBox="0 0 63.27 63.24"><rect class="cls-1" width="63.28" height="63.24"/><rect class="cls-2" width="63.28" height="63.23"/><rect class="cls-1" x="33.56" y="23.02" width="6.65" height="6.64"/><polygon class="cls-1" points="62.66 53.9 54.02 53.89 54.01 62.5 62.64 62.51 62.66 53.9"/><path class="cls-1" d="M18.43,18.32,15.72,15.6l2.74,2.74H44.91l0,26.43H18.43ZM44,34.56H34.68V43.8h9.27Zm-24.57-6h9.28V19.29H19.4Zm0,15.26H33.71l0-10.2H44V19.29h0v0H29.62v10.2H19.38Z"/><rect class="cls-1" x="23.12" y="33.42" width="6.65" height="6.64"/><polygon class="cls-1" points="5.13 58.07 5.12 58.08 0.69 53.64 0.68 62.5 9.55 62.5 5.13 58.07"/><polygon class="cls-1" points="9.55 35.74 0.69 26.88 0.69 26.88 0.65 35.82 9.55 35.78 9.55 35.74"/><polygon class="cls-1" points="9.48 53.56 0.69 44.77 0.68 53.63 9.48 53.63 9.48 53.56"/><polygon class="cls-1" points="9.48 18.06 0.69 9.27 0.68 18.08 9.48 18.08 9.48 18.06"/><polygon class="cls-1" points="0.69 18.14 0.69 26.87 9.42 26.87 0.69 18.14"/><polygon class="cls-1" points="0.68 35.85 0.65 35.82 0.69 44.77 9.58 44.78 0.68 35.85"/><polygon class="cls-3" points="19.39 43.81 19.4 43.8 19.39 43.8 19.39 43.81"/><polygon class="cls-3" points="23.12 40.06 23.12 33.42 29.77 33.42 29.77 33.4 31.66 31.54 29.61 29.49 19.39 29.48 19.39 43.8 23.12 40.06 23.12 40.06"/><polygon class="cls-3" points="19.4 19.28 19.39 28.53 28.66 28.54 19.4 19.28"/><polygon class="cls-3" points="12.11 51.09 12.13 51.07 12.11 51.07 12.11 51.09"/><polygon class="cls-3" points="12.11 12 12.11 51.07 14.75 48.43 14.75 48.43 14.75 14.64 12.11 12"/><polygon class="cls-3" points="9.48 18.06 9.48 18.08 0.68 18.08 0.69 18.14 9.42 26.87 0.69 26.87 0.69 26.88 9.55 35.74 9.55 35.78 0.65 35.82 0.68 35.85 9.58 44.78 0.69 44.77 9.48 53.56 9.48 53.63 0.68 53.63 0.69 53.64 5.12 58.08 5.13 58.07 5.12 58.06 11.16 52.02 11.16 52.02 11.16 11.05 9.3 9.19 0.68 9.19 0.69 9.27 9.48 18.06"/><polygon class="cls-3" points="18.43 44.75 18.43 18.32 15.72 15.6 15.7 47.48 18.43 44.75 18.43 44.75"/><polygon class="cls-3" points="15.7 47.49 15.72 47.48 15.7 47.48 15.7 47.49"/><polygon class="cls-1" points="27.02 0.59 35.89 9.45 35.93 9.45 35.96 0.55 27.02 0.59 27.02 0.59"/><polygon class="cls-1" points="53.71 9.38 53.77 9.38 53.77 0.58 44.91 0.59 53.71 9.38"/><polygon class="cls-1" points="18.21 9.38 18.22 9.38 18.22 0.58 9.41 0.59 18.21 9.38"/><polygon class="cls-1" points="27.02 9.32 27.02 0.59 18.28 0.59 27.02 9.32"/><polygon class="cls-1" points="35.99 0.58 44.93 9.48 44.91 0.59 35.96 0.55 35.99 0.58"/><polygon class="cls-3" points="31.67 31.54 33.56 29.66 33.56 29.66 33.56 23.02 40.22 23.02 40.22 23.01 43.94 19.29 29.63 19.29 29.61 29.49 31.66 31.54 31.67 31.54"/><polygon class="cls-3" points="43.96 19.29 43.95 19.29 43.95 19.29 43.96 19.29"/><polygon class="cls-3" points="28.67 19.29 19.4 19.28 28.66 28.54 28.67 19.29"/><polygon class="cls-3" points="51.23 12.02 51.23 12.02 51.23 12.02 51.23 12.02"/><polygon class="cls-3" points="51.21 12.02 12.14 12.02 14.78 14.65 48.59 14.65 48.59 14.64 51.21 12.02"/><polygon class="cls-3" points="58.21 5.01 53.78 0.59 53.77 0.58 53.77 9.38 53.71 9.38 44.91 0.59 44.93 9.48 35.99 0.58 35.96 0.55 35.93 9.45 35.89 9.45 27.02 0.59 27.02 0.59 27.02 9.32 18.28 0.59 18.22 0.58 18.22 9.38 18.21 9.38 9.41 0.59 9.33 0.58 9.33 9.21 11.19 11.06 52.18 11.06 52.18 11.05 58.21 5.01"/><polygon class="cls-3" points="44.91 18.33 44.91 18.32 47.62 15.61 15.72 15.6 18.46 18.34 44.91 18.33"/><polygon class="cls-3" points="47.64 15.61 47.63 15.61 47.63 15.61 47.64 15.61"/><polygon class="cls-1" points="45.13 53.7 45.12 53.7 45.12 62.5 53.93 62.5 45.13 53.7"/><polygon class="cls-1" points="36.32 62.5 27.45 53.63 27.41 53.63 27.38 62.53 36.32 62.5 36.32 62.5"/><polygon class="cls-1" points="27.34 62.5 18.41 53.61 18.43 62.5 27.38 62.53 27.34 62.5"/><polygon class="cls-1" points="36.32 53.77 36.32 62.5 45.05 62.5 36.32 53.77"/><polygon class="cls-1" points="9.63 53.7 9.57 53.7 9.57 62.5 18.43 62.5 9.63 53.7"/><polygon class="cls-1" points="53.86 45.01 53.86 45.02 62.66 53.82 62.66 45.01 53.86 45.01"/><polygon class="cls-1" points="53.92 36.21 62.66 44.95 62.65 36.21 53.92 36.21"/><polygon class="cls-1" points="53.76 18.3 62.66 27.23 62.69 27.27 62.65 18.32 53.76 18.3"/><polygon class="cls-1" points="62.69 27.27 53.79 27.3 53.79 27.34 62.65 36.21 62.66 36.21 62.69 27.27"/><polygon class="cls-1" points="53.86 9.46 53.85 9.52 62.65 18.32 62.66 9.46 53.86 9.46"/><polygon class="cls-3" points="0.68 62.51 0.68 62.51 0.68 62.51 0.68 62.51"/><rect class="cls-3" x="0.68" y="62.5" height="0.01"/><polygon class="cls-3" points="31.67 31.55 29.78 33.42 29.77 33.42 29.77 40.06 23.12 40.06 23.12 40.08 19.4 43.8 33.71 43.8 33.73 33.6 31.68 31.55 31.67 31.55"/><polygon class="cls-3" points="19.39 43.8 19.39 43.8 19.38 43.8 19.39 43.8"/><polygon class="cls-3" points="31.67 31.55 31.66 31.54 29.77 33.4 29.77 33.42 29.78 33.42 31.67 31.55"/><polygon class="cls-3" points="19.4 43.8 23.12 40.08 23.12 40.06 23.12 40.06 19.39 43.8 19.39 43.8 19.4 43.8"/><polygon class="cls-3" points="31.68 31.55 31.67 31.54 31.66 31.54 31.67 31.55 31.68 31.55"/><polygon class="cls-3" points="34.67 43.8 43.94 43.81 34.69 34.55 34.67 43.8"/><polygon class="cls-3" points="0.68 62.5 0.68 62.5 0.68 62.5 0.68 62.5 0.68 62.5 0.68 62.5 0.68 62.5 0.68 62.5 0.68 62.5 0.68 62.5"/><polygon class="cls-3" points="0.68 62.5 0.68 62.5 0.68 62.5 0.68 62.5 0.68 62.5 0.68 62.5 0.68 62.5"/><polygon class="cls-3" points="12.11 51.07 12.11 51.07 12.11 51.07 12.11 51.07"/><polygon class="cls-3" points="12.13 51.07 51.21 51.08 48.57 48.44 14.75 48.43 14.75 48.45 12.13 51.07"/><polygon class="cls-3" points="12.11 51.07 12.11 51.07 12.13 51.07 14.75 48.45 14.75 48.43 14.75 48.43 12.11 51.07"/><polygon class="cls-3" points="5.13 58.07 9.55 62.5 9.57 62.5 9.57 53.7 9.63 53.7 18.43 62.5 18.41 53.61 27.34 62.5 27.38 62.53 27.41 53.63 27.45 53.63 36.32 62.5 36.32 62.5 36.32 53.77 45.05 62.5 45.12 62.5 45.12 53.7 45.13 53.7 53.93 62.5 54.01 62.5 54.02 53.89 52.16 52.03 11.16 52.02 11.16 52.04 5.13 58.07"/><polygon class="cls-3" points="5.12 58.06 5.13 58.07 11.16 52.04 11.16 52.02 11.16 52.02 5.12 58.06"/><polygon class="cls-3" points="18.43 44.75 18.43 44.77 15.72 47.48 47.62 47.49 44.89 44.76 18.43 44.75"/><polygon class="cls-3" points="15.7 47.48 15.7 47.48 15.7 47.48 15.7 47.48"/><polygon class="cls-3" points="18.43 44.75 18.43 44.75 15.7 47.48 15.7 47.48 15.72 47.48 18.43 44.77 18.43 44.75"/><polygon class="cls-3" points="40.22 23.02 40.22 29.66 33.56 29.66 33.56 29.68 31.68 31.55 33.73 33.6 43.95 33.6 43.95 19.29 40.22 23.02 40.22 23.02"/><polygon class="cls-3" points="43.95 19.27 43.94 19.29 43.95 19.29 43.95 19.27"/><polygon class="cls-3" points="40.22 23.02 40.22 23.02 43.95 19.29 43.95 19.29 43.94 19.29 40.22 23.01 40.22 23.02"/><polygon class="cls-3" points="33.56 29.68 33.56 29.66 33.56 29.66 31.67 31.54 31.68 31.55 33.56 29.68"/><polygon class="cls-3" points="43.94 43.81 43.95 34.56 34.69 34.55 43.94 43.81"/><polygon class="cls-3" points="51.23 12 51.21 12.02 51.23 12.02 51.23 12"/><polygon class="cls-3" points="51.23 12.02 48.59 14.65 48.59 14.65 48.57 48.44 51.21 51.08 51.23 12.02"/><polygon class="cls-3" points="51.23 12.02 51.23 12.02 51.21 12.02 48.59 14.64 48.59 14.65 48.59 14.65 51.23 12.02"/><polygon class="cls-3" points="62.66 53.9 62.66 53.82 53.86 45.02 53.86 45.01 62.66 45.01 62.66 44.95 53.92 36.21 62.65 36.21 62.65 36.21 53.79 27.34 53.79 27.3 62.69 27.27 62.66 27.23 53.76 18.3 62.65 18.32 53.85 9.52 53.86 9.46 62.66 9.46 62.65 9.45 58.22 5.01 58.21 5.01 58.22 5.02 52.18 11.06 52.18 11.06 52.16 52.03 54.02 53.89 62.66 53.9"/><polygon class="cls-3" points="58.22 5.02 58.21 5.01 52.18 11.05 52.18 11.06 52.18 11.06 58.22 5.02"/><polygon class="cls-3" points="47.62 15.61 47.63 15.61 47.63 15.59 47.62 15.61"/><polygon class="cls-3" points="44.91 18.33 44.89 44.76 47.62 47.49 47.63 15.61 44.91 18.33 44.91 18.33"/><polygon class="cls-3" points="44.91 18.32 44.91 18.33 44.91 18.33 47.63 15.61 47.63 15.61 47.62 15.61 44.91 18.32"/><path class="cls-3" d="M63.28,0H0V63.24H63.28ZM.25.25H63V63H.25Z"/></pattern><pattern id="New_Pattern_Swatch_17-7" data-name="New Pattern Swatch 17" width="63.28" height="63.24" patternTransform="translate(1252.12 -757.85) scale(1.04 1)" patternUnits="userSpaceOnUse" viewBox="0 0 63.27 63.24"><rect class="cls-1" width="63.28" height="63.24"/><rect class="cls-5" width="63.28" height="63.23"/><rect class="cls-1" x="33.56" y="23.02" width="6.65" height="6.64"/><polygon class="cls-1" points="62.66 53.9 54.02 53.89 54.01 62.5 62.64 62.51 62.66 53.9"/><path class="cls-1" d="M18.43,18.32,15.72,15.6l2.74,2.73H44.91l0,26.43H18.43ZM44,34.56H34.68V43.8h9.27Zm-24.57-6h9.28V19.29H19.4Zm0,15.26h0v0l0,0H33.71l0-10.2H44V19.29h0v0H29.62v10.2H19.38Z"/><rect class="cls-1" x="23.12" y="33.42" width="6.65" height="6.64"/><polygon class="cls-1" points="5.13 58.07 5.12 58.08 0.69 53.64 0.68 62.5 9.55 62.5 5.13 58.07"/><polygon class="cls-1" points="9.55 35.74 0.69 26.88 0.69 26.88 0.65 35.82 9.55 35.78 9.55 35.74"/><polygon class="cls-1" points="9.48 53.56 0.69 44.77 0.68 53.63 9.48 53.63 9.48 53.56"/><polygon class="cls-1" points="9.48 18.06 0.69 9.27 0.68 18.08 9.48 18.08 9.48 18.06"/><polygon class="cls-1" points="0.69 18.14 0.69 26.87 9.42 26.87 0.69 18.14"/><polygon class="cls-1" points="0.68 35.85 0.65 35.82 0.69 44.77 9.58 44.78 0.68 35.85"/><polygon class="cls-4" points="19.39 43.81 19.4 43.8 19.39 43.8 19.39 43.81"/><polygon class="cls-4" points="23.12 40.06 23.12 33.42 29.77 33.42 29.77 33.4 31.66 31.54 29.61 29.49 19.39 29.48 19.39 43.8 23.12 40.06 23.12 40.06"/><polygon class="cls-4" points="19.4 19.28 19.39 28.53 28.66 28.54 19.4 19.28"/><polygon class="cls-4" points="12.11 51.09 12.13 51.07 12.11 51.07 12.11 51.09"/><polygon class="cls-4" points="12.11 12 12.11 51.07 14.75 48.43 14.75 48.43 14.75 14.64 12.11 12"/><polygon class="cls-4" points="9.48 18.06 9.48 18.08 0.68 18.08 0.69 18.14 9.42 26.87 0.69 26.87 0.69 26.88 9.55 35.74 9.55 35.78 0.65 35.82 0.68 35.85 9.58 44.78 0.69 44.77 9.48 53.56 9.48 53.63 0.68 53.63 0.69 53.64 5.12 58.08 5.13 58.07 5.12 58.06 11.16 52.02 11.16 52.02 11.16 11.05 9.3 9.19 0.68 9.19 0.69 9.27 9.48 18.06"/><polygon class="cls-4" points="18.43 44.75 18.43 18.32 15.72 15.6 15.7 47.48 18.43 44.75 18.43 44.75"/><polygon class="cls-4" points="15.7 47.49 15.72 47.48 15.7 47.48 15.7 47.49"/><polygon class="cls-1" points="27.02 0.59 35.89 9.45 35.93 9.45 35.96 0.55 27.02 0.59 27.02 0.59"/><polygon class="cls-1" points="53.71 9.39 53.77 9.38 53.77 0.58 44.91 0.59 53.71 9.39"/><polygon class="cls-1" points="18.21 9.38 18.22 9.38 18.22 0.58 9.41 0.59 18.21 9.38"/><polygon class="cls-1" points="27.02 9.32 27.02 0.59 18.28 0.59 27.02 9.32"/><polygon class="cls-1" points="35.99 0.58 44.93 9.48 44.91 0.59 35.96 0.55 35.99 0.58"/><polygon class="cls-4" points="31.67 31.54 33.56 29.66 33.56 29.66 33.56 23.02 40.22 23.02 40.22 23.01 43.94 19.29 29.63 19.29 29.61 29.49 31.66 31.54 31.67 31.54"/><polygon class="cls-4" points="43.96 19.29 43.95 19.29 43.95 19.29 43.96 19.29"/><polygon class="cls-4" points="28.67 19.29 19.4 19.28 28.66 28.54 28.67 19.29"/><polygon class="cls-4" points="51.23 12.02 51.23 12.02 51.23 12.02 51.23 12.02"/><polygon class="cls-4" points="51.21 12.02 12.14 12.02 14.78 14.65 48.59 14.65 48.59 14.64 51.21 12.02"/><polygon class="cls-4" points="58.21 5.01 53.78 0.59 53.77 0.58 53.77 9.38 53.71 9.39 44.91 0.59 44.93 9.48 35.99 0.58 35.96 0.55 35.93 9.45 35.89 9.45 27.02 0.59 27.02 0.59 27.02 9.32 18.28 0.59 18.22 0.58 18.22 9.38 18.21 9.38 9.41 0.59 9.33 0.58 9.33 9.21 11.19 11.06 52.18 11.06 52.18 11.05 58.21 5.01"/><polygon class="cls-4" points="44.91 18.34 44.91 18.32 47.62 15.61 15.72 15.6 18.46 18.34 44.91 18.34"/><polygon class="cls-4" points="47.64 15.61 47.63 15.61 47.63 15.61 47.64 15.61"/><polygon class="cls-1" points="45.13 53.7 45.12 53.7 45.12 62.5 53.93 62.5 45.13 53.7"/><polygon class="cls-1" points="36.32 62.5 27.45 53.63 27.41 53.63 27.38 62.53 36.32 62.5 36.32 62.5"/><polygon class="cls-1" points="27.34 62.5 18.41 53.61 18.43 62.5 27.38 62.53 27.34 62.5"/><polygon class="cls-1" points="36.32 53.77 36.32 62.5 45.05 62.5 36.32 53.77"/><polygon class="cls-1" points="9.63 53.7 9.57 53.7 9.57 62.5 18.43 62.5 9.63 53.7"/><polygon class="cls-1" points="53.86 45.01 53.86 45.02 62.66 53.82 62.66 45.01 53.86 45.01"/><polygon class="cls-1" points="53.92 36.21 62.66 44.95 62.65 36.21 53.92 36.21"/><polygon class="cls-1" points="53.76 18.3 62.66 27.23 62.69 27.27 62.65 18.32 53.76 18.3"/><polygon class="cls-1" points="62.69 27.27 53.79 27.3 53.79 27.34 62.65 36.21 62.66 36.21 62.69 27.27"/><polygon class="cls-1" points="53.86 9.46 53.85 9.52 62.65 18.32 62.66 9.46 53.86 9.46"/><polygon class="cls-4" points="0.68 62.51 0.68 62.51 0.68 62.51 0.68 62.51"/><rect class="cls-4" x="0.68" y="62.5" height="0.01"/><polygon class="cls-4" points="31.67 31.55 29.78 33.42 29.77 33.42 29.77 40.06 23.12 40.06 23.12 40.08 19.4 43.8 33.71 43.8 33.73 33.6 31.68 31.55 31.67 31.55"/><polygon class="cls-4" points="19.39 43.8 19.39 43.8 19.38 43.8 19.39 43.8"/><polygon class="cls-4" points="31.67 31.55 31.66 31.54 29.77 33.4 29.77 33.42 29.78 33.42 31.67 31.55"/><polygon class="cls-4" points="19.4 43.8 23.12 40.08 23.12 40.06 23.12 40.06 19.39 43.8 19.39 43.8 19.4 43.8"/><polygon class="cls-4" points="31.68 31.55 31.67 31.54 31.66 31.54 31.67 31.55 31.68 31.55"/><polygon class="cls-4" points="34.67 43.8 43.94 43.81 34.69 34.55 34.67 43.8"/><polygon class="cls-4" points="0.68 62.5 0.68 62.5 0.68 62.5 0.68 62.5 0.68 62.5 0.68 62.5 0.68 62.5 0.68 62.5 0.68 62.5 0.68 62.5"/><polygon class="cls-4" points="0.68 62.5 0.68 62.5 0.68 62.5 0.68 62.5 0.68 62.5 0.68 62.5 0.68 62.5"/><polygon class="cls-4" points="12.11 51.07 12.11 51.07 12.11 51.07 12.11 51.07"/><polygon class="cls-4" points="12.13 51.07 51.21 51.08 48.57 48.44 14.75 48.43 14.75 48.45 12.13 51.07"/><polygon class="cls-4" points="12.11 51.07 12.11 51.07 12.13 51.07 14.75 48.45 14.75 48.43 14.75 48.43 12.11 51.07"/><polygon class="cls-4" points="5.13 58.07 9.55 62.5 9.57 62.5 9.57 53.7 9.63 53.7 18.43 62.5 18.41 53.61 27.34 62.5 27.38 62.53 27.41 53.63 27.45 53.63 36.32 62.5 36.32 62.5 36.32 53.77 45.05 62.5 45.12 62.5 45.12 53.7 45.13 53.7 53.93 62.5 54.01 62.5 54.02 53.89 52.16 52.03 11.16 52.02 11.16 52.04 5.13 58.07"/><polygon class="cls-4" points="5.12 58.06 5.13 58.07 11.16 52.04 11.16 52.02 11.16 52.02 5.12 58.06"/><polygon class="cls-4" points="18.43 44.75 18.43 44.77 15.72 47.48 47.62 47.49 44.89 44.76 18.43 44.75"/><polygon class="cls-4" points="15.7 47.48 15.7 47.48 15.7 47.48 15.7 47.48"/><polygon class="cls-4" points="18.43 44.75 18.43 44.75 15.7 47.48 15.7 47.48 15.72 47.48 18.43 44.77 18.43 44.75"/><polygon class="cls-4" points="40.22 23.02 40.22 29.66 33.56 29.66 33.56 29.68 31.68 31.55 33.73 33.6 43.95 33.6 43.95 19.29 40.22 23.02 40.22 23.02"/><polygon class="cls-4" points="43.95 19.27 43.94 19.29 43.95 19.29 43.95 19.27"/><polygon class="cls-4" points="40.22 23.02 40.22 23.02 43.95 19.29 43.95 19.29 43.94 19.29 40.22 23.01 40.22 23.02"/><polygon class="cls-4" points="33.56 29.68 33.56 29.66 33.56 29.66 31.67 31.54 31.68 31.55 33.56 29.68"/><polygon class="cls-4" points="43.94 43.81 43.95 34.56 34.69 34.55 43.94 43.81"/><polygon class="cls-4" points="51.23 12 51.21 12.02 51.23 12.02 51.23 12"/><polygon class="cls-4" points="51.23 12.02 48.59 14.65 48.59 14.65 48.57 48.44 51.21 51.08 51.23 12.02"/><polygon class="cls-4" points="51.23 12.02 51.23 12.02 51.21 12.02 48.59 14.64 48.59 14.65 48.59 14.65 51.23 12.02"/><polygon class="cls-4" points="62.66 53.9 62.66 53.82 53.86 45.02 53.86 45.01 62.66 45.01 62.66 44.95 53.92 36.21 62.65 36.21 62.65 36.21 53.79 27.34 53.79 27.3 62.69 27.27 62.66 27.23 53.76 18.3 62.65 18.32 53.85 9.52 53.86 9.46 62.66 9.46 62.65 9.45 58.22 5.01 58.21 5.01 58.22 5.02 52.18 11.06 52.18 11.06 52.16 52.03 54.02 53.89 62.66 53.9"/><polygon class="cls-4" points="58.22 5.02 58.21 5.01 52.18 11.05 52.18 11.06 52.18 11.06 58.22 5.02"/><polygon class="cls-4" points="47.62 15.61 47.63 15.61 47.63 15.59 47.62 15.61"/><polygon class="cls-4" points="44.91 18.34 44.89 44.76 47.62 47.49 47.63 15.61 44.91 18.34 44.91 18.34"/><polygon class="cls-4" points="44.91 18.32 44.91 18.34 44.91 18.34 47.63 15.61 47.63 15.61 47.62 15.61 44.91 18.32"/><path class="cls-4" d="M63.28,0H0V63.24H63.28ZM.25.25H63V63H.25Z"/></pattern><pattern id="New_Pattern_Swatch_15-11" data-name="New Pattern Swatch 15" width="63.28" height="63.24" patternTransform="translate(1252.12 -757.85) scale(1.04 1)" patternUnits="userSpaceOnUse" viewBox="0 0 63.27 63.24"><rect class="cls-1" width="63.28" height="63.24"/><rect class="cls-4" width="63.28" height="63.23"/><rect class="cls-1" x="33.56" y="23.02" width="6.65" height="6.64"/><polygon class="cls-1" points="62.66 53.9 54.02 53.89 54.01 62.5 62.64 62.51 62.66 53.9"/><path class="cls-1" d="M18.43,18.32,15.72,15.6l2.74,2.73H44.91l0,26.43H18.43ZM44,34.56H34.68V43.8h9.27Zm-24.57-6h9.28V19.29H19.4Zm0,15.26h0v0l0,0H33.71l0-10.2H44V19.29h0v0H29.62v10.2H19.38Z"/><rect class="cls-1" x="23.12" y="33.42" width="6.65" height="6.64"/><polygon class="cls-1" points="5.13 58.07 5.12 58.08 0.69 53.64 0.68 62.5 9.55 62.5 5.13 58.07"/><polygon class="cls-1" points="9.55 35.74 0.69 26.88 0.69 26.88 0.65 35.82 9.55 35.78 9.55 35.74"/><polygon class="cls-1" points="9.48 53.56 0.69 44.77 0.68 53.63 9.48 53.63 9.48 53.56"/><polygon class="cls-1" points="9.48 18.06 0.69 9.27 0.68 18.08 9.48 18.08 9.48 18.06"/><polygon class="cls-1" points="0.69 18.14 0.69 26.87 9.42 26.87 0.69 18.14"/><polygon class="cls-1" points="0.68 35.85 0.65 35.82 0.69 44.77 9.58 44.78 0.68 35.85"/><polygon class="cls-5" points="19.39 43.81 19.4 43.8 19.39 43.8 19.39 43.81"/><polygon class="cls-5" points="23.12 40.06 23.12 33.42 29.77 33.42 29.77 33.4 31.66 31.54 29.61 29.49 19.39 29.48 19.39 43.8 23.12 40.06 23.12 40.06"/><polygon class="cls-5" points="19.4 19.28 19.39 28.53 28.66 28.54 19.4 19.28"/><polygon class="cls-5" points="12.11 51.09 12.13 51.07 12.11 51.07 12.11 51.09"/><polygon class="cls-5" points="12.11 12 12.11 51.07 14.75 48.43 14.75 48.43 14.75 14.64 12.11 12"/><polygon class="cls-5" points="9.48 18.06 9.48 18.08 0.68 18.08 0.69 18.14 9.42 26.87 0.69 26.87 0.69 26.88 9.55 35.74 9.55 35.78 0.65 35.82 0.68 35.85 9.58 44.78 0.69 44.77 9.48 53.56 9.48 53.63 0.68 53.63 0.69 53.64 5.12 58.08 5.13 58.07 5.12 58.06 11.16 52.02 11.16 52.02 11.16 11.05 9.3 9.19 0.68 9.19 0.69 9.27 9.48 18.06"/><polygon class="cls-5" points="18.43 44.75 18.43 18.32 15.72 15.6 15.7 47.48 18.43 44.75 18.43 44.75"/><polygon class="cls-5" points="15.7 47.49 15.72 47.48 15.7 47.48 15.7 47.49"/><polygon class="cls-1" points="27.02 0.59 35.89 9.45 35.93 9.45 35.96 0.55 27.02 0.59 27.02 0.59"/><polygon class="cls-1" points="53.71 9.39 53.77 9.38 53.77 0.58 44.91 0.59 53.71 9.39"/><polygon class="cls-1" points="18.21 9.38 18.22 9.38 18.22 0.58 9.41 0.59 18.21 9.38"/><polygon class="cls-1" points="27.02 9.32 27.02 0.59 18.28 0.59 27.02 9.32"/><polygon class="cls-1" points="35.99 0.58 44.93 9.48 44.91 0.59 35.96 0.55 35.99 0.58"/><polygon class="cls-5" points="31.67 31.54 33.56 29.66 33.56 29.66 33.56 23.02 40.22 23.02 40.22 23.01 43.94 19.29 29.63 19.29 29.61 29.49 31.66 31.54 31.67 31.54"/><polygon class="cls-5" points="43.96 19.29 43.95 19.29 43.95 19.29 43.96 19.29"/><polygon class="cls-5" points="28.67 19.29 19.4 19.28 28.66 28.54 28.67 19.29"/><polygon class="cls-5" points="51.23 12.02 51.23 12.02 51.23 12.02 51.23 12.02"/><polygon class="cls-5" points="51.21 12.02 12.14 12.02 14.78 14.65 48.59 14.65 48.59 14.64 51.21 12.02"/><polygon class="cls-5" points="58.21 5.01 53.78 0.59 53.77 0.58 53.77 9.38 53.71 9.39 44.91 0.59 44.93 9.48 35.99 0.58 35.96 0.55 35.93 9.45 35.89 9.45 27.02 0.59 27.02 0.59 27.02 9.32 18.28 0.59 18.22 0.58 18.22 9.38 18.21 9.38 9.41 0.59 9.33 0.58 9.33 9.21 11.19 11.06 52.18 11.06 52.18 11.05 58.21 5.01"/><polygon class="cls-5" points="44.91 18.34 44.91 18.32 47.62 15.61 15.72 15.6 18.46 18.34 44.91 18.34"/><polygon class="cls-5" points="47.64 15.61 47.63 15.61 47.63 15.61 47.64 15.61"/><polygon class="cls-1" points="45.13 53.7 45.12 53.7 45.12 62.5 53.93 62.5 45.13 53.7"/><polygon class="cls-1" points="36.32 62.5 27.45 53.63 27.41 53.63 27.38 62.53 36.32 62.5 36.32 62.5"/><polygon class="cls-1" points="27.34 62.5 18.41 53.61 18.43 62.5 27.38 62.53 27.34 62.5"/><polygon class="cls-1" points="36.32 53.77 36.32 62.5 45.05 62.5 36.32 53.77"/><polygon class="cls-1" points="9.63 53.7 9.57 53.7 9.57 62.5 18.43 62.5 9.63 53.7"/><polygon class="cls-1" points="53.86 45.01 53.86 45.02 62.66 53.82 62.66 45.01 53.86 45.01"/><polygon class="cls-1" points="53.92 36.21 62.66 44.95 62.65 36.21 53.92 36.21"/><polygon class="cls-1" points="53.76 18.3 62.66 27.23 62.69 27.27 62.65 18.32 53.76 18.3"/><polygon class="cls-1" points="62.69 27.27 53.79 27.3 53.79 27.34 62.65 36.21 62.66 36.21 62.69 27.27"/><polygon class="cls-1" points="53.86 9.46 53.85 9.52 62.65 18.32 62.66 9.46 53.86 9.46"/><polygon class="cls-5" points="0.68 62.51 0.68 62.51 0.68 62.51 0.68 62.51"/><rect class="cls-5" x="0.68" y="62.5" height="0.01"/><polygon class="cls-5" points="31.67 31.55 29.78 33.42 29.77 33.42 29.77 40.06 23.12 40.06 23.12 40.08 19.4 43.8 33.71 43.8 33.73 33.6 31.68 31.55 31.67 31.55"/><polygon class="cls-5" points="19.39 43.8 19.39 43.8 19.38 43.8 19.39 43.8"/><polygon class="cls-5" points="31.67 31.55 31.66 31.54 29.77 33.4 29.77 33.42 29.78 33.42 31.67 31.55"/><polygon class="cls-5" points="19.4 43.8 23.12 40.08 23.12 40.06 23.12 40.06 19.39 43.8 19.39 43.8 19.4 43.8"/><polygon class="cls-5" points="31.68 31.55 31.67 31.54 31.66 31.54 31.67 31.55 31.68 31.55"/><polygon class="cls-5" points="34.67 43.8 43.94 43.81 34.69 34.55 34.67 43.8"/><polygon class="cls-5" points="0.68 62.5 0.68 62.5 0.68 62.5 0.68 62.5 0.68 62.5 0.68 62.5 0.68 62.5 0.68 62.5 0.68 62.5 0.68 62.5"/><polygon class="cls-5" points="0.68 62.5 0.68 62.5 0.68 62.5 0.68 62.5 0.68 62.5 0.68 62.5 0.68 62.5"/><polygon class="cls-5" points="12.11 51.07 12.11 51.07 12.11 51.07 12.11 51.07"/><polygon class="cls-5" points="12.13 51.07 51.21 51.08 48.57 48.44 14.75 48.43 14.75 48.45 12.13 51.07"/><polygon class="cls-5" points="12.11 51.07 12.11 51.07 12.13 51.07 14.75 48.45 14.75 48.43 14.75 48.43 12.11 51.07"/><polygon class="cls-5" points="5.13 58.07 9.55 62.5 9.57 62.5 9.57 53.7 9.63 53.7 18.43 62.5 18.41 53.61 27.34 62.5 27.38 62.53 27.41 53.63 27.45 53.63 36.32 62.5 36.32 62.5 36.32 53.77 45.05 62.5 45.12 62.5 45.12 53.7 45.13 53.7 53.93 62.5 54.01 62.5 54.02 53.89 52.16 52.03 11.16 52.02 11.16 52.04 5.13 58.07"/><polygon class="cls-5" points="5.12 58.06 5.13 58.07 11.16 52.04 11.16 52.02 11.16 52.02 5.12 58.06"/><polygon class="cls-5" points="18.43 44.75 18.43 44.77 15.72 47.48 47.62 47.49 44.89 44.76 18.43 44.75"/><polygon class="cls-5" points="15.7 47.48 15.7 47.48 15.7 47.48 15.7 47.48"/><polygon class="cls-5" points="18.43 44.75 18.43 44.75 15.7 47.48 15.7 47.48 15.72 47.48 18.43 44.77 18.43 44.75"/><polygon class="cls-5" points="40.22 23.02 40.22 29.66 33.56 29.66 33.56 29.68 31.68 31.55 33.73 33.6 43.95 33.6 43.95 19.29 40.22 23.02 40.22 23.02"/><polygon class="cls-5" points="43.95 19.27 43.94 19.29 43.95 19.29 43.95 19.27"/><polygon class="cls-5" points="40.22 23.02 40.22 23.02 43.95 19.29 43.95 19.29 43.94 19.29 40.22 23.01 40.22 23.02"/><polygon class="cls-5" points="33.56 29.68 33.56 29.66 33.56 29.66 31.67 31.54 31.68 31.55 33.56 29.68"/><polygon class="cls-5" points="43.94 43.81 43.95 34.56 34.69 34.55 43.94 43.81"/><polygon class="cls-5" points="51.23 12 51.21 12.02 51.23 12.02 51.23 12"/><polygon class="cls-5" points="51.23 12.02 48.59 14.65 48.59 14.65 48.57 48.44 51.21 51.08 51.23 12.02"/><polygon class="cls-5" points="51.23 12.02 51.23 12.02 51.21 12.02 48.59 14.64 48.59 14.65 48.59 14.65 51.23 12.02"/><polygon class="cls-5" points="62.66 53.9 62.66 53.82 53.86 45.02 53.86 45.01 62.66 45.01 62.66 44.95 53.92 36.21 62.65 36.21 62.65 36.21 53.79 27.34 53.79 27.3 62.69 27.27 62.66 27.23 53.76 18.3 62.65 18.32 53.85 9.52 53.86 9.46 62.66 9.46 62.65 9.45 58.22 5.01 58.21 5.01 58.22 5.02 52.18 11.06 52.18 11.06 52.16 52.03 54.02 53.89 62.66 53.9"/><polygon class="cls-5" points="58.22 5.02 58.21 5.01 52.18 11.05 52.18 11.06 52.18 11.06 58.22 5.02"/><polygon class="cls-5" points="47.62 15.61 47.63 15.61 47.63 15.59 47.62 15.61"/><polygon class="cls-5" points="44.91 18.34 44.89 44.76 47.62 47.49 47.63 15.61 44.91 18.34 44.91 18.34"/><polygon class="cls-5" points="44.91 18.32 44.91 18.34 44.91 18.34 47.63 15.61 47.63 15.61 47.62 15.61 44.91 18.32"/><path class="cls-5" d="M63.28,0H0V63.24H63.28ZM.25.25H63V63H.25Z"/></pattern><pattern id="New_Pattern_Swatch_17-17" data-name="New Pattern Swatch 17" width="63.28" height="63.24" patternTransform="translate(979.68 -757.85)" patternUnits="userSpaceOnUse" viewBox="0 0 63.27 63.24"><rect class="cls-1" width="63.28" height="63.24"/><rect class="cls-5" width="63.28" height="63.23"/><rect class="cls-1" x="33.56" y="23.02" width="6.65" height="6.64"/><polygon class="cls-1" points="62.66 53.9 54.02 53.89 54.01 62.5 62.64 62.51 62.66 53.9"/><path class="cls-1" d="M18.43,18.32,15.72,15.6l2.74,2.73H44.91l0,26.43H18.43ZM44,34.56H34.68V43.8h9.27Zm-24.57-6h9.28V19.29H19.4Zm0,15.26h0v0l0,0H33.71l0-10.2H44V19.29h0v0H29.62v10.2H19.38Z"/><rect class="cls-1" x="23.12" y="33.42" width="6.65" height="6.64"/><polygon class="cls-1" points="5.13 58.07 5.12 58.08 0.69 53.64 0.68 62.5 9.55 62.5 5.13 58.07"/><polygon class="cls-1" points="9.55 35.74 0.69 26.88 0.69 26.88 0.65 35.82 9.55 35.78 9.55 35.74"/><polygon class="cls-1" points="9.48 53.56 0.69 44.77 0.68 53.63 9.48 53.63 9.48 53.56"/><polygon class="cls-1" points="9.48 18.06 0.69 9.27 0.68 18.08 9.48 18.08 9.48 18.06"/><polygon class="cls-1" points="0.69 18.14 0.69 26.87 9.42 26.87 0.69 18.14"/><polygon class="cls-1" points="0.68 35.85 0.65 35.82 0.69 44.77 9.58 44.78 0.68 35.85"/><polygon class="cls-4" points="19.39 43.81 19.4 43.8 19.39 43.8 19.39 43.81"/><polygon class="cls-4" points="23.12 40.06 23.12 33.42 29.77 33.42 29.77 33.4 31.66 31.54 29.61 29.49 19.39 29.48 19.39 43.8 23.12 40.06 23.12 40.06"/><polygon class="cls-4" points="19.4 19.28 19.39 28.53 28.66 28.54 19.4 19.28"/><polygon class="cls-4" points="12.11 51.09 12.13 51.07 12.11 51.07 12.11 51.09"/><polygon class="cls-4" points="12.11 12 12.11 51.07 14.75 48.43 14.75 48.43 14.75 14.64 12.11 12"/><polygon class="cls-4" points="9.48 18.06 9.48 18.08 0.68 18.08 0.69 18.14 9.42 26.87 0.69 26.87 0.69 26.88 9.55 35.74 9.55 35.78 0.65 35.82 0.68 35.85 9.58 44.78 0.69 44.77 9.48 53.56 9.48 53.63 0.68 53.63 0.69 53.64 5.12 58.08 5.13 58.07 5.12 58.06 11.16 52.02 11.16 52.02 11.16 11.05 9.3 9.19 0.68 9.19 0.69 9.27 9.48 18.06"/><polygon class="cls-4" points="18.43 44.75 18.43 18.32 15.72 15.6 15.7 47.48 18.43 44.75 18.43 44.75"/><polygon class="cls-4" points="15.7 47.49 15.72 47.48 15.7 47.48 15.7 47.49"/><polygon class="cls-1" points="27.02 0.59 35.89 9.45 35.93 9.45 35.96 0.55 27.02 0.59 27.02 0.59"/><polygon class="cls-1" points="53.71 9.39 53.77 9.38 53.77 0.58 44.91 0.59 53.71 9.39"/><polygon class="cls-1" points="18.21 9.38 18.22 9.38 18.22 0.58 9.41 0.59 18.21 9.38"/><polygon class="cls-1" points="27.02 9.32 27.02 0.59 18.28 0.59 27.02 9.32"/><polygon class="cls-1" points="35.99 0.58 44.93 9.48 44.91 0.59 35.96 0.55 35.99 0.58"/><polygon class="cls-4" points="31.67 31.54 33.56 29.66 33.56 29.66 33.56 23.02 40.22 23.02 40.22 23.01 43.94 19.29 29.63 19.29 29.61 29.49 31.66 31.54 31.67 31.54"/><polygon class="cls-4" points="43.96 19.29 43.95 19.29 43.95 19.29 43.96 19.29"/><polygon class="cls-4" points="28.67 19.29 19.4 19.28 28.66 28.54 28.67 19.29"/><polygon class="cls-4" points="51.23 12.02 51.23 12.02 51.23 12.02 51.23 12.02"/><polygon class="cls-4" points="51.21 12.02 12.14 12.02 14.78 14.65 48.59 14.65 48.59 14.64 51.21 12.02"/><polygon class="cls-4" points="58.21 5.01 53.78 0.59 53.77 0.58 53.77 9.38 53.71 9.39 44.91 0.59 44.93 9.48 35.99 0.58 35.96 0.55 35.93 9.45 35.89 9.45 27.02 0.59 27.02 0.59 27.02 9.32 18.28 0.59 18.22 0.58 18.22 9.38 18.21 9.38 9.41 0.59 9.33 0.58 9.33 9.21 11.19 11.06 52.18 11.06 52.18 11.05 58.21 5.01"/><polygon class="cls-4" points="44.91 18.34 44.91 18.32 47.62 15.61 15.72 15.6 18.46 18.34 44.91 18.34"/><polygon class="cls-4" points="47.64 15.61 47.63 15.61 47.63 15.61 47.64 15.61"/><polygon class="cls-1" points="45.13 53.7 45.12 53.7 45.12 62.5 53.93 62.5 45.13 53.7"/><polygon class="cls-1" points="36.32 62.5 27.45 53.63 27.41 53.63 27.38 62.53 36.32 62.5 36.32 62.5"/><polygon class="cls-1" points="27.34 62.5 18.41 53.61 18.43 62.5 27.38 62.53 27.34 62.5"/><polygon class="cls-1" points="36.32 53.77 36.32 62.5 45.05 62.5 36.32 53.77"/><polygon class="cls-1" points="9.63 53.7 9.57 53.7 9.57 62.5 18.43 62.5 9.63 53.7"/><polygon class="cls-1" points="53.86 45.01 53.86 45.02 62.66 53.82 62.66 45.01 53.86 45.01"/><polygon class="cls-1" points="53.92 36.21 62.66 44.95 62.65 36.21 53.92 36.21"/><polygon class="cls-1" points="53.76 18.3 62.66 27.23 62.69 27.27 62.65 18.32 53.76 18.3"/><polygon class="cls-1" points="62.69 27.27 53.79 27.3 53.79 27.34 62.65 36.21 62.66 36.21 62.69 27.27"/><polygon class="cls-1" points="53.86 9.46 53.85 9.52 62.65 18.32 62.66 9.46 53.86 9.46"/><polygon class="cls-4" points="0.68 62.51 0.68 62.51 0.68 62.51 0.68 62.51"/><rect class="cls-4" x="0.68" y="62.5" height="0.01"/><polygon class="cls-4" points="31.67 31.55 29.78 33.42 29.77 33.42 29.77 40.06 23.12 40.06 23.12 40.08 19.4 43.8 33.71 43.8 33.73 33.6 31.68 31.55 31.67 31.55"/><polygon class="cls-4" points="19.39 43.8 19.39 43.8 19.38 43.8 19.39 43.8"/><polygon class="cls-4" points="31.67 31.55 31.66 31.54 29.77 33.4 29.77 33.42 29.78 33.42 31.67 31.55"/><polygon class="cls-4" points="19.4 43.8 23.12 40.08 23.12 40.06 23.12 40.06 19.39 43.8 19.39 43.8 19.4 43.8"/><polygon class="cls-4" points="31.68 31.55 31.67 31.54 31.66 31.54 31.67 31.55 31.68 31.55"/><polygon class="cls-4" points="34.67 43.8 43.94 43.81 34.69 34.55 34.67 43.8"/><polygon class="cls-4" points="0.68 62.5 0.68 62.5 0.68 62.5 0.68 62.5 0.68 62.5 0.68 62.5 0.68 62.5 0.68 62.5 0.68 62.5 0.68 62.5"/><polygon class="cls-4" points="0.68 62.5 0.68 62.5 0.68 62.5 0.68 62.5 0.68 62.5 0.68 62.5 0.68 62.5"/><polygon class="cls-4" points="12.11 51.07 12.11 51.07 12.11 51.07 12.11 51.07"/><polygon class="cls-4" points="12.13 51.07 51.21 51.08 48.57 48.44 14.75 48.43 14.75 48.45 12.13 51.07"/><polygon class="cls-4" points="12.11 51.07 12.11 51.07 12.13 51.07 14.75 48.45 14.75 48.43 14.75 48.43 12.11 51.07"/><polygon class="cls-4" points="5.13 58.07 9.55 62.5 9.57 62.5 9.57 53.7 9.63 53.7 18.43 62.5 18.41 53.61 27.34 62.5 27.38 62.53 27.41 53.63 27.45 53.63 36.32 62.5 36.32 62.5 36.32 53.77 45.05 62.5 45.12 62.5 45.12 53.7 45.13 53.7 53.93 62.5 54.01 62.5 54.02 53.89 52.16 52.03 11.16 52.02 11.16 52.04 5.13 58.07"/><polygon class="cls-4" points="5.12 58.06 5.13 58.07 11.16 52.04 11.16 52.02 11.16 52.02 5.12 58.06"/><polygon class="cls-4" points="18.43 44.75 18.43 44.77 15.72 47.48 47.62 47.49 44.89 44.76 18.43 44.75"/><polygon class="cls-4" points="15.7 47.48 15.7 47.48 15.7 47.48 15.7 47.48"/><polygon class="cls-4" points="18.43 44.75 18.43 44.75 15.7 47.48 15.7 47.48 15.72 47.48 18.43 44.77 18.43 44.75"/><polygon class="cls-4" points="40.22 23.02 40.22 29.66 33.56 29.66 33.56 29.68 31.68 31.55 33.73 33.6 43.95 33.6 43.95 19.29 40.22 23.02 40.22 23.02"/><polygon class="cls-4" points="43.95 19.27 43.94 19.29 43.95 19.29 43.95 19.27"/><polygon class="cls-4" points="40.22 23.02 40.22 23.02 43.95 19.29 43.95 19.29 43.94 19.29 40.22 23.01 40.22 23.02"/><polygon class="cls-4" points="33.56 29.68 33.56 29.66 33.56 29.66 31.67 31.54 31.68 31.55 33.56 29.68"/><polygon class="cls-4" points="43.94 43.81 43.95 34.56 34.69 34.55 43.94 43.81"/><polygon class="cls-4" points="51.23 12 51.21 12.02 51.23 12.02 51.23 12"/><polygon class="cls-4" points="51.23 12.02 48.59 14.65 48.59 14.65 48.57 48.44 51.21 51.08 51.23 12.02"/><polygon class="cls-4" points="51.23 12.02 51.23 12.02 51.21 12.02 48.59 14.64 48.59 14.65 48.59 14.65 51.23 12.02"/><polygon class="cls-4" points="62.66 53.9 62.66 53.82 53.86 45.02 53.86 45.01 62.66 45.01 62.66 44.95 53.92 36.21 62.65 36.21 62.65 36.21 53.79 27.34 53.79 27.3 62.69 27.27 62.66 27.23 53.76 18.3 62.65 18.32 53.85 9.52 53.86 9.46 62.66 9.46 62.65 9.45 58.22 5.01 58.21 5.01 58.22 5.02 52.18 11.06 52.18 11.06 52.16 52.03 54.02 53.89 62.66 53.9"/><polygon class="cls-4" points="58.22 5.02 58.21 5.01 52.18 11.05 52.18 11.06 52.18 11.06 58.22 5.02"/><polygon class="cls-4" points="47.62 15.61 47.63 15.61 47.63 15.59 47.62 15.61"/><polygon class="cls-4" points="44.91 18.34 44.89 44.76 47.62 47.49 47.63 15.61 44.91 18.34 44.91 18.34"/><polygon class="cls-4" points="44.91 18.32 44.91 18.34 44.91 18.34 47.63 15.61 47.63 15.61 47.62 15.61 44.91 18.32"/><path class="cls-4" d="M63.28,0H0V63.24H63.28ZM.25.25H63V63H.25Z"/></pattern><pattern id="New_Pattern_Swatch_11-21" data-name="New Pattern Swatch 11" width="63.28" height="63.24" patternTransform="translate(979.68 -757.85)" patternUnits="userSpaceOnUse" viewBox="0 0 63.27 63.24"><rect class="cls-1" width="63.28" height="63.24"/><rect class="cls-2" width="63.28" height="63.23"/><rect class="cls-1" x="33.56" y="23.02" width="6.65" height="6.64"/><polygon class="cls-1" points="62.66 53.9 54.02 53.89 54.01 62.5 62.64 62.51 62.66 53.9"/><path class="cls-1" d="M18.43,18.32,15.72,15.6l2.74,2.74H44.91l0,26.43H18.43ZM44,34.56H34.68V43.8h9.27Zm-24.57-6h9.28V19.29H19.4Zm0,15.26H33.71l0-10.2H44V19.29h0v0H29.62v10.2H19.38Z"/><rect class="cls-1" x="23.12" y="33.42" width="6.65" height="6.64"/><polygon class="cls-1" points="5.13 58.07 5.12 58.08 0.69 53.64 0.68 62.5 9.55 62.5 5.13 58.07"/><polygon class="cls-1" points="9.55 35.74 0.69 26.88 0.69 26.88 0.65 35.82 9.55 35.78 9.55 35.74"/><polygon class="cls-1" points="9.48 53.56 0.69 44.77 0.68 53.63 9.48 53.63 9.48 53.56"/><polygon class="cls-1" points="9.48 18.06 0.69 9.27 0.68 18.08 9.48 18.08 9.48 18.06"/><polygon class="cls-1" points="0.69 18.14 0.69 26.87 9.42 26.87 0.69 18.14"/><polygon class="cls-1" points="0.68 35.85 0.65 35.82 0.69 44.77 9.58 44.78 0.68 35.85"/><polygon class="cls-3" points="19.39 43.81 19.4 43.8 19.39 43.8 19.39 43.81"/><polygon class="cls-3" points="23.12 40.06 23.12 33.42 29.77 33.42 29.77 33.4 31.66 31.54 29.61 29.49 19.39 29.48 19.39 43.8 23.12 40.06 23.12 40.06"/><polygon class="cls-3" points="19.4 19.28 19.39 28.53 28.66 28.54 19.4 19.28"/><polygon class="cls-3" points="12.11 51.09 12.13 51.07 12.11 51.07 12.11 51.09"/><polygon class="cls-3" points="12.11 12 12.11 51.07 14.75 48.43 14.75 48.43 14.75 14.64 12.11 12"/><polygon class="cls-3" points="9.48 18.06 9.48 18.08 0.68 18.08 0.69 18.14 9.42 26.87 0.69 26.87 0.69 26.88 9.55 35.74 9.55 35.78 0.65 35.82 0.68 35.85 9.58 44.78 0.69 44.77 9.48 53.56 9.48 53.63 0.68 53.63 0.69 53.64 5.12 58.08 5.13 58.07 5.12 58.06 11.16 52.02 11.16 52.02 11.16 11.05 9.3 9.19 0.68 9.19 0.69 9.27 9.48 18.06"/><polygon class="cls-3" points="18.43 44.75 18.43 18.32 15.72 15.6 15.7 47.48 18.43 44.75 18.43 44.75"/><polygon class="cls-3" points="15.7 47.49 15.72 47.48 15.7 47.48 15.7 47.49"/><polygon class="cls-1" points="27.02 0.59 35.89 9.45 35.93 9.45 35.96 0.55 27.02 0.59 27.02 0.59"/><polygon class="cls-1" points="53.71 9.38 53.77 9.38 53.77 0.58 44.91 0.59 53.71 9.38"/><polygon class="cls-1" points="18.21 9.38 18.22 9.38 18.22 0.58 9.41 0.59 18.21 9.38"/><polygon class="cls-1" points="27.02 9.32 27.02 0.59 18.28 0.59 27.02 9.32"/><polygon class="cls-1" points="35.99 0.58 44.93 9.48 44.91 0.59 35.96 0.55 35.99 0.58"/><polygon class="cls-3" points="31.67 31.54 33.56 29.66 33.56 29.66 33.56 23.02 40.22 23.02 40.22 23.01 43.94 19.29 29.63 19.29 29.61 29.49 31.66 31.54 31.67 31.54"/><polygon class="cls-3" points="43.96 19.29 43.95 19.29 43.95 19.29 43.96 19.29"/><polygon class="cls-3" points="28.67 19.29 19.4 19.28 28.66 28.54 28.67 19.29"/><polygon class="cls-3" points="51.23 12.02 51.23 12.02 51.23 12.02 51.23 12.02"/><polygon class="cls-3" points="51.21 12.02 12.14 12.02 14.78 14.65 48.59 14.65 48.59 14.64 51.21 12.02"/><polygon class="cls-3" points="58.21 5.01 53.78 0.59 53.77 0.58 53.77 9.38 53.71 9.38 44.91 0.59 44.93 9.48 35.99 0.58 35.96 0.55 35.93 9.45 35.89 9.45 27.02 0.59 27.02 0.59 27.02 9.32 18.28 0.59 18.22 0.58 18.22 9.38 18.21 9.38 9.41 0.59 9.33 0.58 9.33 9.21 11.19 11.06 52.18 11.06 52.18 11.05 58.21 5.01"/><polygon class="cls-3" points="44.91 18.33 44.91 18.32 47.62 15.61 15.72 15.6 18.46 18.34 44.91 18.33"/><polygon class="cls-3" points="47.64 15.61 47.63 15.61 47.63 15.61 47.64 15.61"/><polygon class="cls-1" points="45.13 53.7 45.12 53.7 45.12 62.5 53.93 62.5 45.13 53.7"/><polygon class="cls-1" points="36.32 62.5 27.45 53.63 27.41 53.63 27.38 62.53 36.32 62.5 36.32 62.5"/><polygon class="cls-1" points="27.34 62.5 18.41 53.61 18.43 62.5 27.38 62.53 27.34 62.5"/><polygon class="cls-1" points="36.32 53.77 36.32 62.5 45.05 62.5 36.32 53.77"/><polygon class="cls-1" points="9.63 53.7 9.57 53.7 9.57 62.5 18.43 62.5 9.63 53.7"/><polygon class="cls-1" points="53.86 45.01 53.86 45.02 62.66 53.82 62.66 45.01 53.86 45.01"/><polygon class="cls-1" points="53.92 36.21 62.66 44.95 62.65 36.21 53.92 36.21"/><polygon class="cls-1" points="53.76 18.3 62.66 27.23 62.69 27.27 62.65 18.32 53.76 18.3"/><polygon class="cls-1" points="62.69 27.27 53.79 27.3 53.79 27.34 62.65 36.21 62.66 36.21 62.69 27.27"/><polygon class="cls-1" points="53.86 9.46 53.85 9.52 62.65 18.32 62.66 9.46 53.86 9.46"/><polygon class="cls-3" points="0.68 62.51 0.68 62.51 0.68 62.51 0.68 62.51"/><rect class="cls-3" x="0.68" y="62.5" height="0.01"/><polygon class="cls-3" points="31.67 31.55 29.78 33.42 29.77 33.42 29.77 40.06 23.12 40.06 23.12 40.08 19.4 43.8 33.71 43.8 33.73 33.6 31.68 31.55 31.67 31.55"/><polygon class="cls-3" points="19.39 43.8 19.39 43.8 19.38 43.8 19.39 43.8"/><polygon class="cls-3" points="31.67 31.55 31.66 31.54 29.77 33.4 29.77 33.42 29.78 33.42 31.67 31.55"/><polygon class="cls-3" points="19.4 43.8 23.12 40.08 23.12 40.06 23.12 40.06 19.39 43.8 19.39 43.8 19.4 43.8"/><polygon class="cls-3" points="31.68 31.55 31.67 31.54 31.66 31.54 31.67 31.55 31.68 31.55"/><polygon class="cls-3" points="34.67 43.8 43.94 43.81 34.69 34.55 34.67 43.8"/><polygon class="cls-3" points="0.68 62.5 0.68 62.5 0.68 62.5 0.68 62.5 0.68 62.5 0.68 62.5 0.68 62.5 0.68 62.5 0.68 62.5 0.68 62.5"/><polygon class="cls-3" points="0.68 62.5 0.68 62.5 0.68 62.5 0.68 62.5 0.68 62.5 0.68 62.5 0.68 62.5"/><polygon class="cls-3" points="12.11 51.07 12.11 51.07 12.11 51.07 12.11 51.07"/><polygon class="cls-3" points="12.13 51.07 51.21 51.08 48.57 48.44 14.75 48.43 14.75 48.45 12.13 51.07"/><polygon class="cls-3" points="12.11 51.07 12.11 51.07 12.13 51.07 14.75 48.45 14.75 48.43 14.75 48.43 12.11 51.07"/><polygon class="cls-3" points="5.13 58.07 9.55 62.5 9.57 62.5 9.57 53.7 9.63 53.7 18.43 62.5 18.41 53.61 27.34 62.5 27.38 62.53 27.41 53.63 27.45 53.63 36.32 62.5 36.32 62.5 36.32 53.77 45.05 62.5 45.12 62.5 45.12 53.7 45.13 53.7 53.93 62.5 54.01 62.5 54.02 53.89 52.16 52.03 11.16 52.02 11.16 52.04 5.13 58.07"/><polygon class="cls-3" points="5.12 58.06 5.13 58.07 11.16 52.04 11.16 52.02 11.16 52.02 5.12 58.06"/><polygon class="cls-3" points="18.43 44.75 18.43 44.77 15.72 47.48 47.62 47.49 44.89 44.76 18.43 44.75"/><polygon class="cls-3" points="15.7 47.48 15.7 47.48 15.7 47.48 15.7 47.48"/><polygon class="cls-3" points="18.43 44.75 18.43 44.75 15.7 47.48 15.7 47.48 15.72 47.48 18.43 44.77 18.43 44.75"/><polygon class="cls-3" points="40.22 23.02 40.22 29.66 33.56 29.66 33.56 29.68 31.68 31.55 33.73 33.6 43.95 33.6 43.95 19.29 40.22 23.02 40.22 23.02"/><polygon class="cls-3" points="43.95 19.27 43.94 19.29 43.95 19.29 43.95 19.27"/><polygon class="cls-3" points="40.22 23.02 40.22 23.02 43.95 19.29 43.95 19.29 43.94 19.29 40.22 23.01 40.22 23.02"/><polygon class="cls-3" points="33.56 29.68 33.56 29.66 33.56 29.66 31.67 31.54 31.68 31.55 33.56 29.68"/><polygon class="cls-3" points="43.94 43.81 43.95 34.56 34.69 34.55 43.94 43.81"/><polygon class="cls-3" points="51.23 12 51.21 12.02 51.23 12.02 51.23 12"/><polygon class="cls-3" points="51.23 12.02 48.59 14.65 48.59 14.65 48.57 48.44 51.21 51.08 51.23 12.02"/><polygon class="cls-3" points="51.23 12.02 51.23 12.02 51.21 12.02 48.59 14.64 48.59 14.65 48.59 14.65 51.23 12.02"/><polygon class="cls-3" points="62.66 53.9 62.66 53.82 53.86 45.02 53.86 45.01 62.66 45.01 62.66 44.95 53.92 36.21 62.65 36.21 62.65 36.21 53.79 27.34 53.79 27.3 62.69 27.27 62.66 27.23 53.76 18.3 62.65 18.32 53.85 9.52 53.86 9.46 62.66 9.46 62.65 9.45 58.22 5.01 58.21 5.01 58.22 5.02 52.18 11.06 52.18 11.06 52.16 52.03 54.02 53.89 62.66 53.9"/><polygon class="cls-3" points="58.22 5.02 58.21 5.01 52.18 11.05 52.18 11.06 52.18 11.06 58.22 5.02"/><polygon class="cls-3" points="47.62 15.61 47.63 15.61 47.63 15.59 47.62 15.61"/><polygon class="cls-3" points="44.91 18.33 44.89 44.76 47.62 47.49 47.63 15.61 44.91 18.33 44.91 18.33"/><polygon class="cls-3" points="44.91 18.32 44.91 18.33 44.91 18.33 47.63 15.61 47.63 15.61 47.62 15.61 44.91 18.32"/><path class="cls-3" d="M63.28,0H0V63.24H63.28ZM.25.25H63V63H.25Z"/></pattern><clipPath id="clip-path-3"><rect class="cls-1" x="746.35" y="500.62" width="75.88" height="75.88" rx="7.1"/></clipPath></defs><g id="Layer_2" data-name="Layer 2"><g id="Layer_7" data-name="Layer 7"><g class="cls-6"><polygon class="cls-7" points="863.77 599.81 484.41 599.81 594.41 -12.86 863.77 -12.86 863.77 599.81"/><g class="cls-8"><g class="cls-9"><polygon points="78.52 307.33 8.8 159.4 78.52 11.47 148.24 159.4 78.52 307.33"/><polygon points="1.49 141.39 -65.25 -0.22 1.49 -141.84 68.24 -0.22 1.49 141.39"/><polygon points="173.19 125.19 152.59 81.47 173.19 37.75 193.8 81.47 173.19 125.19"/><polygon points="119.2 67.96 86.63 -1.14 119.2 -70.23 151.76 -1.14 119.2 67.96"/><polygon points="399.2 166.96 366.63 97.86 399.2 28.77 431.76 97.86 399.2 166.96"/><polygon points="441.2 191.27 421.05 148.52 441.2 105.77 461.35 148.52 441.2 191.27"/></g><polygon class="cls-10" points="272.64 249.81 345.13 96.01 272.64 -57.79 200.15 96.01 272.64 249.81"/><polygon class="cls-11" points="1.36 358.4 -42.47 265.41 1.36 172.41 45.19 265.41 1.36 358.4"/><polygon class="cls-10" points="355.01 263.05 319.64 188 355.01 112.97 390.38 188 355.01 263.05"/><polygon class="cls-12" points="142.39 221.95 114.48 162.73 142.39 103.51 170.3 162.73 142.39 221.95"/><polygon class="cls-10" points="197.96 66.04 270.45 -87.76 197.96 -241.56 125.47 -87.76 197.96 66.04"/><text/></g><g class="cls-8"><polygon class="cls-13" points="898.8 288.66 837.04 419.69 898.8 537.86 960.55 419.69 898.8 288.66"/><polygon class="cls-13" points="792.83 360.21 821.68 421.4 792.83 482.6 763.99 421.4 792.83 360.21"/><polygon class="cls-13" points="830.1 433.46 858.94 494.65 830.1 555.85 801.25 494.65 830.1 433.46"/></g><g class="cls-14"><polygon class="cls-15" points="732.81 818.39 837.13 597.06 732.81 375.72 628.49 597.06 732.81 818.39"/><polygon class="cls-16" points="836.44 349.94 880.24 257.01 836.44 164.07 792.64 257.01 836.44 349.94"/><polygon class="cls-17" points="866.45 634.64 915.06 531.5 866.45 428.35 817.83 531.5 866.45 634.64"/><polygon class="cls-18" points="836.22 457.42 857.58 412.09 836.22 366.76 814.86 412.09 836.22 457.42"/><polygon class="cls-19" points="782.13 394.89 810.34 335.04 782.13 275.19 753.92 335.04 782.13 394.89"/><polygon class="cls-20" points="617.96 431.43 594.71 480.76 617.96 530.08 641.21 480.76 617.96 431.43"/><polygon class="cls-21" points="579.94 514.25 491.74 701.39 579.94 888.53 668.15 701.39 579.94 514.25"/></g><polygon class="cls-22" points="648.95 516.05 599.05 410.2 648.95 304.35 698.84 410.2 648.95 516.05"/><polygon class="cls-23" points="587.01 535.25 612.7 480.76 587.01 426.26 561.33 480.76 587.01 535.25"/><g class="cls-24"><rect class="cls-25" x="603.52" y="552.59" width="148" height="29"/><rect class="cls-25" x="-27.4" y="563.94" width="99.54" height="35.99"/><polygon class="cls-26" points="-27.4 541.44 49.64 541.44 72.13 563.93 -27.4 563.93 -27.4 541.44"/><polygon class="cls-26" points="-104.8 577.79 -230.05 577.79 -167.42 520.85 -104.8 463.92 -42.16 520.85 20.46 577.79 -104.8 577.79"/><rect class="cls-27" x="33.92" y="572.55" width="29.74" height="18.55"/><polygon class="cls-26" points="33.92 572.55 29.14 569.8 59.86 569.8 63.66 572.55 33.92 572.55"/><rect class="cls-25" x="801.2" y="564.74" width="88.91" height="30.43"/><polyline class="cls-26" points="821.29 545.72 801.2 564.74 890.11 564.74 890.11 545.72"/><rect class="cls-28" x="49.76" y="485.02" width="23.26" height="115.05"/><rect class="cls-29" x="60.77" y="407.67" width="1.47" height="13.71"/><rect class="cls-28" x="59.3" y="417.46" width="4.41" height="5.88"/><polygon class="cls-30" points="63.22 420.15 59.55 420.15 43.64 428.72 33.6 445.37 33.84 469.11 39.72 477.92 49.76 485.27 73.01 485.02 82.31 478.17 88.19 468.87 88.19 445.12 78.4 428.72 63.22 420.15"/><polygon class="cls-28" points="68.7 423.27 54.1 423.27 59.22 420.34 63.58 420.34 68.7 423.27"/><path class="cls-28" d="M87.93,445.13s-22.35,8.19-54.18.11l6.7-11.14s17.66,5.69,41.16,0Z"/><line class="cls-31" x1="81.82" y1="434.1" x2="67.26" y2="448.67"/><line class="cls-31" x1="68.42" y1="436.25" x2="56.06" y2="448.62"/><line class="cls-31" x1="55.75" y1="436.44" x2="44.67" y2="447.53"/><line class="cls-31" x1="46.57" y1="435.51" x2="36.39" y2="445.7"/><line class="cls-31" x1="85.68" y1="440.84" x2="79.28" y2="447.27"/><line class="cls-31" x1="84.49" y1="446.25" x2="75.18" y2="435.44"/><line class="cls-31" x1="75.58" y1="447.81" x2="65.05" y2="436.57"/><line class="cls-31" x1="65.31" y1="448.71" x2="52.65" y2="436.31"/><line class="cls-31" x1="53.18" y1="448.49" x2="39.9" y2="435.27"/><line class="cls-31" x1="35.83" y1="441.66" x2="40.93" y2="446.76"/><path class="cls-28" d="M88,468.87a157.87,157.87,0,0,0-54,.3l5.69,8.75H82.31Z"/><line class="cls-1" x1="83.29" y1="468.01" x2="73.24" y2="478.06"/><line class="cls-1" x1="73.12" y1="467.08" x2="62.18" y2="478.02"/><line class="cls-1" x1="60.83" y1="466.66" x2="49.37" y2="477.97"/><line class="cls-1" x1="48.12" y1="467.3" x2="39" y2="476.5"/><line class="cls-1" x1="82.31" y1="477.92" x2="71.29" y2="467.04"/><line class="cls-1" x1="70.9" y1="477.92" x2="59.67" y2="466.79"/><line class="cls-1" x1="58.78" y1="478.02" x2="48.04" y2="467.4"/><line class="cls-1" x1="47.12" y1="478.02" x2="37.52" y2="468.44"/><line class="cls-1" x1="86.6" y1="471.87" x2="82.79" y2="468.06"/><path class="cls-27" d="M434.32,593.63l-21.64-.6-9.74,7.35s58.13,5.51,80.85-2.77l-6.55-3.94Z"/><polygon class="cls-32" points="447.71 534.19 510.76 527.4 510.62 563.99 433.72 568.36 432.95 536.38 447.71 534.19"/><polygon class="cls-32" points="510.73 535.4 532.01 534.13 531.12 563.82 510.62 563.99 510.73 535.4"/><polygon class="cls-33" points="510.76 527.4 516.72 535.04 510.73 535.4 510.76 527.4"/><polygon class="cls-34" points="531.63 546.93 557.18 545.97 557.52 598.73 483.79 597.61 477.24 593.67 434.32 593.63 433.72 568.36 510.62 563.99 531.12 563.82 531.63 546.93"/><polygon class="cls-27" points="557.18 545.97 563.13 560.07 563.45 600.15 557.52 598.73 557.18 545.97"/><polygon class="cls-33" points="532.01 534.13 538.41 546.68 531.63 546.93 532.01 534.13"/><polygon class="cls-35" points="531.34 556.58 554.18 555.55 553.75 570.02 512.53 571.11 512.75 563.98 531.12 563.82 531.34 556.58"/><polygon class="cls-35" points="512.62 576.68 512.03 588.23 553.78 589.42 554.01 576.85 512.62 576.68"/><polygon class="cls-35" points="473.13 566.12 472.94 572.14 509.64 571.49 509.86 564.04 473.13 566.12"/><polygon class="cls-35" points="472.47 587.82 472.83 576 509.91 576.51 509.56 588.11 472.47 587.82"/><polygon class="cls-27" points="433.49 557.2 531.55 551.31 531.12 563.82 433.72 568.36 433.49 557.2"/><path class="cls-34" d="M453.22,496.39l3.17,105-216.57-.66-2.25-74.61s76.86-28.89,215.65-29.77"/><polygon class="cls-34" points="453.8 515.32 499 514.06 501.6 607.59 456.39 606.7 453.8 515.32"/><polygon class="cls-34" points="237.29 516.88 188.71 534.58 203.47 536.77 202.11 594.02 223.74 593.42 233.49 600.76 239.82 600.77 237.29 516.88"/><polygon class="cls-32" points="188.71 534.58 125.67 527.79 125.81 564.38 202.71 568.74 203.47 536.77 188.71 534.58"/><polygon class="cls-32" points="125.7 535.78 104.41 534.51 105.31 564.2 125.81 564.38 125.7 535.78"/><polygon class="cls-33" points="125.67 527.79 119.71 535.43 125.7 535.78 125.67 527.79"/><polygon class="cls-34" points="104.8 547.32 79.24 546.35 78.9 599.12 152.63 598 159.18 594.05 202.11 594.02 202.71 568.74 125.81 564.38 105.31 564.21 104.8 547.32"/><polygon class="cls-27" points="79.25 546.36 73.29 560.45 72.97 600.53 78.9 599.12 79.25 546.36"/><polygon class="cls-33" points="104.41 534.51 98.01 547.06 104.8 547.32 104.41 534.51"/><polygon class="cls-27" points="182.41 576.39 182.4 594.03 178.33 594.14 178.34 576.5 182.41 576.39"/><polygon class="cls-35" points="105.09 556.97 82.24 555.93 82.68 570.4 123.89 571.49 123.68 564.36 105.31 564.2 105.09 556.97"/><polygon class="cls-35" points="123.81 577.06 124.39 588.62 82.64 589.8 82.42 577.23 123.81 577.06"/><polygon class="cls-27" points="197.63 576.4 197.67 594.02 202.11 594.02 202.53 576.4 197.63 576.4"/><polygon class="cls-35" points="163.3 566.51 163.48 572.52 126.79 571.87 126.56 564.42 163.3 566.51"/><polygon class="cls-35" points="163.95 588.21 163.6 576.39 126.51 576.9 126.86 588.5 163.95 588.21"/><path class="cls-32" d="M454.11,525.8S307,529.34,280.16,540.67l-.35-11.59-27-7.75s83.63-25.41,200.42-24.94Z"/><polygon class="cls-27" points="496.34 528.44 498.5 600.26 456.39 601.43 454.2 528.86 496.34 528.44"/><polygon class="cls-27" points="234.83 547.72 234.26 528.89 216.43 534.03 216.96 551.56 234.83 547.72"/><polygon class="cls-27" points="217.72 569.14 217.22 555.37 234.64 552.38 235.2 568.38 217.72 569.14"/><polygon class="cls-27" points="214.84 569.25 214.34 555.88 206.77 557.14 206.55 569.14 214.84 569.25"/><polygon class="cls-27" points="214.36 552.09 213.84 534.66 206.77 536.57 206.67 553.61 214.36 552.09"/><path class="cls-27" d="M288.07,549.48c.79,1.53,3.79,4.58,4.88,5.62,4.71,4.5,15.86,19.61,20.61,26.15v-8.86c-2.16-1.54-10.12-7.93-16.47-22.72l2.22-.88c5.05,11.77,11.22,18,14.25,20.61V557.07a20.66,20.66,0,0,1-7.86-7l2.07-1.16a17.63,17.63,0,0,0,5.79,5.49v-6.64H316v29a77.71,77.71,0,0,1,5.13-12.08,109.49,109.49,0,0,0,4.37-11,31.75,31.75,0,0,1-4.57-4.94l2.12-1.09a23.09,23.09,0,0,0,3.18,3.47,17,17,0,0,0,.5-2.78l2.39.17a24.36,24.36,0,0,1-.91,4.48c1.13,1,2.26,2.06,3.19,2.87,5,4.47,17,19.58,22,25.89v-8.93a77,77,0,0,1-18.28-25.22l2.19-.94a78.29,78.29,0,0,0,16.09,23V557.74c-1.79-1.32-8-6-10.58-10l2-1.23c1.89,2.9,6.07,6.36,8.53,8.27l0-7.35h2.4l0,9.73v20.42a75.47,75.47,0,0,1,5.57-12.25c.27-.61,2.4-5.89,4.09-11-2.55-2.23-6.52-5.83-7.41-7.37l2.1-1.12c.57,1,3.4,3.66,6.08,6a32.28,32.28,0,0,0,1.28-5.61l2.39.18a38.13,38.13,0,0,1-1.7,7.15l.95.81c5.43,4.66,18.43,20.52,23.6,26.91v-9.39c-2.26-1.73-11.71-9.54-19-24.8l2.18-1a70.79,70.79,0,0,0,16.82,22.72V556.34c-1.83-1.23-7.88-5.48-10.65-9.56l2-1.26c2,3,6.2,6.23,8.63,8v-7.08h2.41v30.84a76.48,76.48,0,0,1,6.12-13.1c.21-.4,1.95-4.28,3.56-8.55-2-1.85-8.07-7.49-9.17-9.4l2.1-1.12c.7,1.21,4.82,5.22,7.94,8.12a34.37,34.37,0,0,0,1.89-7.18l2.39.19a40,40,0,0,1-2.36,8.74c5.73,5.22,18,20.21,23,26.38v-9.42a79.91,79.91,0,0,1-19.52-26l2.18-1a80.81,80.81,0,0,0,17.34,23.85V556.33c-1.9-1.34-8.51-6.19-11.3-10.31l2-1.26c2.06,3,6.67,6.72,9.28,8.67v-7.15H433v31a76.48,76.48,0,0,1,6.12-13.1c.37-.73,5.88-12.73,6.32-17.81l2.39.19c-.49,5.68-6.33,18.21-6.58,18.69l-.05.08c-4.53,7.25-8,18.69-8,18.81l-.19-.05v17.2h-2.4V585.1c-2.1-2.62-17-21.07-23.91-27.77-1.6,4.13-3.2,7.65-3.33,7.89l-.05.08c-4.53,7.25-8,18.69-8,18.81l-.19-.05v17.2h-2.41V585.1c-2.24-2.8-19.07-23.7-25.19-29l-.15-.13c-1.72,5.09-3.72,10-3.86,10.28l-.06.13c-4.25,7-7.47,18.1-7.51,18.21l-.18,0v16.45h-2.4V585.61c-2.12-2.73-17.87-23-23.6-28-.26-.22-1.19-1-2.35-2.1-1.68,4.94-4,9.9-4.13,10.21l0,.08c-4,7.16-7.07,18.45-7.1,18.56l-.17,0v16.77h-2.4V585.3c-2-2.72-16.88-23.38-22.3-28.57-.43-.41-4.23-4.07-5.34-6.22Z"/><path class="cls-32" d="M454.75,544.34c-1.29,0-130.08-2.25-191.51,7.82l-.95.16.43,2.37.94-.16c61.69-10.11,189.85-7.81,191.13-7.79"/><polygon class="cls-27" points="237.57 526.16 237.29 516.88 279.81 529.07 281.97 600.9 238.43 600.77 237.57 526.16"/><polygon class="cls-36" points="242 528.73 242.57 547.76 263.38 551.63 262.85 534.09 242 528.73"/><polygon class="cls-36" points="242.89 552.52 243.46 571.33 264.27 573.92 263.74 556.59 242.89 552.52"/><polygon class="cls-36" points="243.78 576.73 244.36 594.69 265.16 595.78 264.63 579.31 243.78 576.73"/><polygon class="cls-27" points="202.94 557.59 104.88 551.69 105.31 564.2 202.71 568.74 202.94 557.59"/><path class="cls-37" d="M626.6,489.24h2.28v9.13H626.6Zm0,10.53h2.28v9.14H626.6ZM629,487.84h-2.27v-9.13H629Zm.08-10.53h-2.27v-9.13h2.27Zm.17-21.06H627v-9.13h2.27Zm1.27,33h2.28v9.13h-2.28Zm0,10.53h2.28v9.14h-2.28ZM633,487.84h-2.28v-9.13H633Zm.09-10.53h-2.28v-9.13h2.28Zm-2.28-19.66h2.28v9.13h-2.28Zm2.44-1.4H631v-9.13h2.28Zm.56-20.2h-2.28v-9.13h2.28Zm.27,1.6h4.7v3.48h-4.7Zm.08,5.09h4.71v3.47h-4.71Zm.69,46.5h2.28v9.13h-2.28Zm0,10.53h2.28v9.14h-2.28Zm2.44-11.93H635v-9.13h2.27Zm.09-10.53H635.1v-9.13h2.28Zm-2.28-19.66h2.28v9.13H635.1Zm.17-10.53h2.27v9.13h-2.27ZM638.42,525l8.58,3.35h-8.58Zm0,4.94H647l-8.58,3.36Zm1.07,4.11,11.24-4.33v4.33Zm0-22.19V459l14.83-10.95H742.8L757.56,459v52.94l-14.13,10H653.09Zm13.57,12.16h11.23l-11.23,4.33Zm0,5.7,11.23,4.33H653.06Zm3.72-1.37,8.58-3.35v3.35Zm8.58,1.59v3.36L656.78,530Zm3.58-4.82,8.58,3.36h-8.58Zm1.07-1h11.23v4.34Zm-1.07,5.92h8.58l-8.58,3.36Zm1.07,4.12,11.23-4.34v4.34Zm13.72-10.16H695l-11.23,4.33Zm0,5.7L695,534.08H683.73Zm3.72-1.37L696,525v3.35ZM696,530v3.36L687.45,530Zm3-4.82,8.59,3.36H699Zm1.08-1h11.23v4.34ZM699,530.09h8.59L699,533.45Zm1.08,4.12,11.23-4.34v4.34ZM714.59,524h11.23l-11.23,4.33Zm0,5.7L725.82,534H714.59Zm3.72-1.37,8.59-3.35v3.35Zm8.59,1.59v3.35l-8.59-3.35Zm3.27-4.73,8.59,3.36h-8.59Zm1.08-1h11.23v4.34Zm-1.08,5.92h8.59l-8.59,3.36Zm1.08,4.12,11.23-4.34v4.34Zm14-10.25h11.23l-11.23,4.33Zm0,5.7L756.49,534H745.26Zm12.3,3.57L749,529.88h8.58Zm0-8.29v3.35H749Zm0-2.24-11.79-.05,11.79-8.71Zm0-76.49h-4.71v-3.47h4.71Zm.12-18.78-.16,8.82H745.77Zm1.53,10.22H764v3.48h-4.7Zm.08,5.09H764v3.47h-4.7Zm.76,47.2h2.27v9.13h-2.27Zm0,10.53h2.27v9.14h-2.27Zm2.44-11.93h-2.27v-9.13h2.27Zm.08-10.53h-2.27v-9.13h2.27Zm-2.27-19.66h2.27v9.13h-2.27Zm.16-10.53h2.28V457H760.5Zm3.55,42.12h2.27v9.13h-2.27Zm0,10.53h2.27v9.14h-2.27Zm2.44-11.93h-2.28v-9.13h2.28Zm.08-10.53H764.3v-9.13h2.27Zm-2.27-19.66h2.27v9.13H764.3Zm2.44-1.4h-2.28v-9.13h2.28Zm1.6,33h2.27v9.13h-2.27Zm0,10.53h2.27v9.14h-2.27Zm2.44-11.93H768.5v-9.13h2.28Zm.08-10.53h-2.27v-9.13h2.27Zm-2.27-19.66h2.27v9.13h-2.27ZM771,457h-2.28v-9.13H771Zm.08-10.74h-4.7v-3.47h4.7Zm-.08-5.08h-4.71v-3.47H771Zm-.34-4.72h-2.27v-9.13h2.27Zm-4.28,0h-2.28v-9.13h2.28Zm-4,0h-2.28v-9.13h2.28Zm-12,4.72h-4.71v-3.47h4.71Zm.08,5.08h-4.7v-3.47h4.7Zm2.29-8.56h4.71v3.48h-4.71Zm4.75,10.4v8.2l-11.79-8.2Zm-14.35-1.84h-4.7v-3.47h4.7Zm-.08-5.08h-4.7v-3.47h4.7Zm-7,5.08h-4.71v-3.47h4.71Zm-.09-5.08h-4.7v-3.47h4.7Zm-6.35,5.08H725v-3.47h4.71Zm-.08-5.08h-4.7v-3.47h4.7Zm-7,5.08h-4.71v-3.47h4.71Zm-.09-5.08h-4.7v-3.47h4.7Zm-7.19,5.08h-4.7v-3.47h4.7Zm-.08-5.08h-4.7v-3.47h4.7Zm-7,5.08h-4.71v-3.47h4.71Zm-.09-5.08h-4.7v-3.47h4.7Zm-6.35,5.08h-4.7v-3.47h4.7Zm-.08-5.08h-4.7v-3.47h4.7Zm-7,5.08h-4.71v-3.47h4.71Zm-.08-5.08H690v-3.47h4.7Zm-7.23,5.08h-4.71v-3.47h4.71Zm-.08-5.08h-4.7v-3.47h4.7Zm-7,5.08h-4.71v-3.47h4.71Zm-.09-5.08h-4.7v-3.47h4.7ZM674,446.21h-4.71v-3.47H674Zm-.08-5.08h-4.71v-3.47h4.71Zm-7,5.08h-4.7v-3.47h4.7Zm-.08-5.08h-4.7v-3.47h4.7Zm-7.1,5.08H655v-3.47h4.71Zm-.09-5.08h-4.7v-3.47h4.7Zm-5.46-5.08h-14v-8.6Zm-8.92,5.08h-4.71v-3.47h4.71Zm-4.62,1.61h4.7v3.47h-4.7Zm11.7-1.61h-4.7v-3.47h4.7Zm-4.63,1.61h4.71v3.47h-4.71Zm-8.18,5.31h12l-12,8.2Zm11.24,76v4.33l-11.24-4.33Zm-11.86-1.63v-8.34l11.29,8.34Zm-.77-86.37h-2.28v-9.13h2.28Zm-8.26,0h-2.27v-9.13h2.27Zm-2.76,6.69h4.71v3.47h-4.71Zm-.08-5.09h4.7v3.48H627Zm-.15,20h2.28v9.13h-2.28ZM625,426.19V514.5h12.12v25h9.39l5.44-4h89.93l5.43,4h12v8.84l.28.22V513.94H773V426.52H756.81l-12.5,9.23H656.09l-15.58-9.56Z"/><rect class="cls-37" x="800.22" y="517.06" width="16.16" height="67.65"/><rect class="cls-37" x="759.34" y="501.67" width="27.26" height="78.76"/><rect class="cls-37" x="580.11" y="517.82" width="16.15" height="67.65"/><rect class="cls-37" x="609.9" y="502.42" width="27.26" height="78.76"/><path class="cls-37" d="M566.87,589h-3.42v6.56l4,.33s55.8,12.93,133.26,14.26c0,0,77.46,1,122.82-13h20.08v-8.89H814.11v-3.53H800.22V583H785.08v-2.53H637.16v.76H611.41v2.53H596.27v1.76H582.38V589Z"/><path class="cls-30" d="M823.57,588.25S736.11,617.78,568,589h14.39v-3.54h13.89v-1.76h15.14v-2.53h25.75v-.76H785.08V583h15.14v1.77h13.89v3.53Z"/><rect class="cls-38" x="814.11" y="526.41" width="18.94" height="61.84"/><rect class="cls-38" x="785.08" y="508.48" width="15.14" height="74.46"/><rect class="cls-38" x="563.45" y="527.16" width="18.93" height="61.85"/><rect class="cls-38" x="596.27" y="509.24" width="15.15" height="74.47"/></g></g><g class="cls-39"><path class="cls-40" d="M739.92,582.93V494.19h88.73v88.74ZM798.57,569h2.69v2.57h7.87v-2.49L806.5,569v-2.55h-2.63v-5.21h5.38v5.09h7.8v-5.25h-5.13l-.15-2.67h-5.15v-5.16h7.94v2.5h2.51V545.16H806.52v-2.64h2.73v-2.66h2.62v2.58h5.19v-5.19h-2.58v-5.34h2.58v-5.18h-2.54V532h-2.74v-2.72H801.31l-.14-2.51H798.6v7.88h-2.72v5.26h-2.62l0,0v-8h2.56v-2.53l-2.48-.12v-2.62h2.47v-8h-2.59V516h2.57v-5.27h-2.57V508h-2.6v-2.52H780v2.57h-5.35v-2.58h-2.53V508h2.57v2.74h2.68v2.49H780V508l10.69,0,0,2.75h-8V516H780v2.65h-2.69V516.1h-2.53v2.54h2.58v8h-2.7v-5.23h-2.54v5.19h2.58v2.7h-2.65v2.59l0,0h-5.4v-2.58h2.58v-2.54h-2.54v2.58H764v-2.58h-5.23v2.57l-2.65,0v-2.51H750.9v2.46h5.3v2.72h2.61v8h-7.87v10.51h2.57v-5.25h2.64v5.24h8v-2.59h2.63v2.72H772V553h5.26v-2.46H772l0-2.76h8v10.66h-2.73v5.31h-2.62v-5.23h-2.54v5.19h2.58v2.74h-2.6v5.14h10.51v-2.58h2.75v-2.68h2.49v-2.59h-5.24v-2.69H788v-2.56h2.6v5.14h2.71v-2.49h2.53l.14,2.62h5.25v2.64h-2.65v2.65L796,569V566.5h-5.38v2.64h-2.53v2.49h5.3v-2.5L796,569v2.62h2.57ZM769.3,523.9V505.52H750.92V523.9Zm29.4-18.44v18.39h18.38V505.46ZM751,553.22v18.39h18.38V553.22Zm5.13-18.53H750.9v2.46h5.18Zm58.52,34.45v2.48h2.49v-2.48Z"/><path d="M766.72,529.26v2.58h5.4v2.62h5.22v-2.56h5.23v-2.54h-5.19V532l-5.3-.06V529.3h2.65v-2.7l0,0h2.7v-8l0,0H780l0,0v5.3h2.69v2.6h2.56V523.9L788,524v2.57h2.6V524h2.58v-2.53h-2.54V524H788V521.4h-2.68v2.54l-2.64,0,.05-5.34,0,0h8V516l0,0h2.7l0,0v2.63h2.59v8h-2.47v2.62l2.48.12v2.53H793.3v8l-2.74.07v-2.71H788c0-.89,0-1.77,0-2.65h2.54v-5.25h-5.13V532h2.5c.05,1,.09,1.81.13,2.64h-2.62v2.56H788v2.71h2.6v2.59h-5.25v2.7h-2.58v2.53h2.54v-2.57h5.24c0-1,0-1.84,0-2.7h2.71v-2.61h2.62V534.6h2.72l0,0v5.37h2.74v2.63h5.27l-.05,0v2.64h10.55v10.58h-2.51v-2.5h-7.94v5.16h5.15l.15,2.67h5.13v5.25h-7.8v-5.09h-5.38v5.21l0,0h-2.69l0,0V563.8H796l-.14-2.62h-2.53v2.49h-2.71v-5.14H788v2.56h-5.38l0,0v-2.64h2.67v-2.72h5.32v-2.66h2.5v-2.67h-2.6v-2.51h-2.67v2.65h-5.17v7.95l-2.76-.09,0,0V547.82h-8l0,0v-2.7h-5.34l0,0c0-.89,0-1.79,0-2.69h2.58V540h-2.54v2.57h-5.34v-2.7h-2.65l0,0v-8l0,0h2.64v5.21H764V532h-2.65v-2.76h-2.6l0,0v-2.57H764v2.58h2.72Zm37.1,21.32H796v7.77h7.79Zm-26.4-5.46H780l.14-2.62h2.46v-2.66h-2.47l-.13-2.51h-2.53Zm15.94.14v2.49h10.42v-2.49Zm-21.22-8v2.53h2.45v-2.53Zm39.61,13.17V548h-2.48v2.47ZM769.28,537.2v-2.52h-2.42v2.52Z"/><path d="M769.3,523.9H750.92V505.52H769.3Zm-2.61-15.77h-13.1V521.2h13.1Z"/><path d="M798.7,505.46h18.38v18.39H798.7Zm15.71,15.78V508.17H801.33v13.07Z"/><path d="M751,553.22h18.38v18.39H751ZM753.57,569h13.08V555.88H753.57Z"/><path d="M798.6,534.6v-7.88h2.57l.14,2.51h10.47V532h2.74l0,0v5.34l0,0h-2.69v2.7l0,0h-2.62v2.66h-2.73l.05,0v-8h2.55V532h-7.91v2.58l0-.05h-2.69Z"/><path d="M774.69,563.79h2.62v-5.31H780l0,0v2.69h2.7l0,0v2.69l.05,0h-2.75v2.73h-2.48v2.62h5.23l-.05,0v2.58H772.13v-5.14h2.6v-2.74Z"/><path d="M756.15,545.17h-2.64v5.25h-2.57V539.91h7.87l0,0,0,2.7h-2.7v2.65Z"/><path d="M782.69,516v-5.31h8l0,0V516l0,0h-8Z"/><path d="M766.77,547.82h-2.63v2.59h-8v-5.24l0,0,2.7,0v2.57h2.61v-2.57l5.35,0,0,0v2.7Z"/><path d="M780,508.06v-2.57h10.62c0,.81,0,1.67,0,2.52l0,0L780,508Z"/><path d="M803.87,566.44h2.63V569l2.63.14v2.49h-7.87v-2.57l0,0h2.69V566.4Z"/><path d="M796,569l-2.65.14v2.5h-5.3v-2.49h2.53V566.5H796V569Z"/><path d="M782.64,563.78h5.24v2.59h-2.49v2.68h-2.75l.05,0v-5.35Z"/><path d="M814.48,537.25h2.58v5.19h-5.19v-2.58l0,0h2.69v-2.7Z"/><path d="M780,508v5.24h-2.59v-2.49h-2.68V508l0,0H780Z"/><path d="M756.08,534.69v2.46H750.9v-2.46Z"/><path d="M772,550.58h5.3V553H772v-2.51Z"/><path d="M814.52,532v-5.22h2.54v5.18h-2.58Z"/><path d="M756.2,529.19h-5.3v-2.46h5.26v2.51Z"/><path d="M772,547.82c0,.92,0,1.84,0,2.76l0-.05h-5.25v-2.72l0,0h5.34Z"/><path d="M774.73,563.75h-2.58v-5.19h2.54v5.23Z"/><path d="M774.73,526.6h-2.58v-5.19h2.54v5.23Z"/><path d="M793.26,510.72h2.57V516h-2.57l0,0v-5.35Z"/><path d="M758.81,531.91H756.2v-2.72l0,0,2.65,0,0,0V532Z"/><path d="M766.76,529.3v-2.58h2.54v2.54h-2.58Z"/><path d="M780,518.68V516h2.66l0,0v2.69l0,0H780Z"/><path d="M777.39,518.64h-2.58V516.1h2.53v2.58Z"/><path d="M798.61,569.09v-2.65h2.65l0,0v2.69l0,0h-2.69Z"/><path d="M790.65,510.72c0-.91,0-1.83,0-2.75l0,0h2.61v2.71l0,0h-2.7Z"/><path d="M798.57,569v2.57H796V569l0,0,2.65.05Z"/><path d="M774.73,508h-2.57v-2.54h2.53v2.58Z"/><path d="M814.6,569.14h2.49v2.48H814.6Z"/><path class="cls-40" d="M798.56,534.56h2.69v2.59h2.54V534.6h-2.58V532h7.91v2.49h-2.55v8H801.3v-2.63h-2.74Z"/><path class="cls-40" d="M782.75,558.53v-7.95h5.17v-2.65h2.67v2.51h2.6v2.67h-2.5v2.66h-5.32v2.72H782.7Z"/><path class="cls-40" d="M803.82,550.58v7.77H796v-7.77Zm-2.64,2.64h-2.51v2.49h2.51Z"/><path class="cls-40" d="M777.42,545.12v-7.79H780l.13,2.51h2.47v2.66h-2.46l-.14,2.62Z"/><path class="cls-40" d="M793.36,545.26h10.42v2.49H793.36Z"/><path class="cls-40" d="M782.65,518.68V516h8v2.69Z"/><path class="cls-40" d="M788.05,534.65l-.13-2.64h-2.5v-2.65h5.13v5.25H788Z"/><path class="cls-40" d="M761.37,532H764v5.16h-2.61V532Z"/><path class="cls-40" d="M777.34,531.91v2.56h-5.22v-2.62l0,0,5.3.06Z"/><path class="cls-40" d="M777.38,532v-2.58h5.19v2.54h-5.23Z"/><path class="cls-40" d="M772.07,547.87h-5.34v-2.7h5.34Z"/><path class="cls-40" d="M780,518.64h2.7l-.05,5.34,0,0H780Z"/><path class="cls-40" d="M790.6,510.68h2.7V516h-2.7Z"/><path class="cls-40" d="M785.34,545.21v-2.7h5.25l-.05,0v2.7H785.3Z"/><path class="cls-40" d="M766.77,545.21l-5.35,0,0,0v-2.69l0,0h5.34l0,0Z"/><path class="cls-40" d="M793.26,539.86v2.61h-2.71l0,0c0-.86,0-1.73,0-2.59l0,.05,2.74-.07Z"/><path class="cls-40" d="M766.76,542.56V540h2.54v2.53h-2.58Z"/><path class="cls-40" d="M758.81,542.56l0-2.7h2.65v2.7l0,0h-2.69Z"/><path class="cls-40" d="M788,537.26h2.6V540l0-.05H788v-2.71Z"/><path class="cls-40" d="M785.3,545.17v2.57h-2.54v-2.53h2.58Z"/><path class="cls-40" d="M772.14,537.26h2.45v2.53h-2.45Z"/><path class="cls-40" d="M788,537.21h-2.57v-2.56h2.62l0,0c0,.88,0,1.76,0,2.65Z"/><path class="cls-40" d="M811.75,550.43h-2.48V548h2.48Z"/><path class="cls-40" d="M769.28,537.2h-2.42v-2.52h2.42Z"/><path class="cls-40" d="M758.77,532v-2.7h2.6V532l0,0Z"/><path class="cls-40" d="M788,524h2.68l0,0v2.57H788V524Z"/><path class="cls-40" d="M782.64,524l2.64,0,0,0v2.64h-2.56v-2.6Z"/><path class="cls-40" d="M790.64,524v-2.57h2.54V524H790.6Z"/><path class="cls-40" d="M782.69,561.13H780v-2.69l2.76.09,0,0C782.7,559.37,782.69,560.25,782.69,561.13Z"/><path class="cls-40" d="M788,524l-2.76-.05,0,0V521.4H788V524Z"/><path class="cls-40" d="M801.22,569.09V566.4h2.69v2.69Z"/><path class="cls-40" d="M766.69,508.13V521.2h-13.1V508.13ZM756.2,518.58H764V510.8h-7.8Z"/><path class="cls-40" d="M814.41,521.24H801.33V508.17h13.08Zm-2.63-2.64v-7.81H804v7.81Z"/><path class="cls-40" d="M753.57,569V555.88h13.08V569ZM764,566.35v-7.77h-7.78v7.77Z"/><path class="cls-40" d="M814.52,537.21v2.7h-2.69v-2.7Z"/><path class="cls-40" d="M782.69,563.74v5.35h-5.23v-2.62h2.48v-2.73Z"/><path class="cls-40" d="M758.81,545.17l-2.7,0v-2.65h2.7l0,0v2.69Z"/><path class="cls-40" d="M761.42,545.17v2.57h-2.61v-2.57l0,0h2.69Z"/><path d="M801.21,534.6h2.58v2.54h-2.54v-2.59Z"/><path d="M801.18,553.22v2.49h-2.51v-2.49Z"/><path d="M761.46,545.21h-2.69v-2.69h2.69Z"/><path d="M756.2,518.58V510.8H764v7.78Z"/><path d="M811.78,518.6H804v-7.81h7.79Z"/><path d="M764,566.35h-7.78v-7.77H764Z"/></g><rect class="cls-40" x="749.46" y="503.4" width="70.4" height="69.22"/></g></g></svg>